<?xml version="1.0" encoding="utf-8"?>
<!-- Generator: Adobe Illustrator 26.0.3, SVG Export Plug-In . SVG Version: 6.00 Build 0)  -->
<svg version="1.1" id="Layer_1" xmlns="http://www.w3.org/2000/svg" xmlns:xlink="http://www.w3.org/1999/xlink" x="0px" y="0px"
	 viewBox="0 0 1280 1024" style="enable-background:new 0 0 1280 1024;" xml:space="preserve">
<path d="M636.8,526.1c-1.1-0.3-1.8-0.6-2.6-0.8c-1.8,4.7-1.8,4.7-4.1,3.5c2.2-3.5,0.2-6.8-5.1-8c0.6,1.5,1.6,2.9,1.5,4.2
	c-0.1,1.4-1.3,2.6-2,4c-0.8,1.6-2,2.4-4.2,1.5c0.6-0.6,1.1-1.1,1.5-1.6c2.3-2.5,2-4.7-0.5-6.8c-1.3-1.1-2.6-2.4-3.5-3.8
	c-1.7-2.9-4.2-1.4-6.4-1.4c-1.9,0-1.7,1.8-1.9,3c-0.2,2-0.3,4-0.5,6c-0.3,3.6-1.4,4.3-5.2,3.1c1.6-3.8,1-7.8-0.2-11.4
	c-0.7-2.3-3-4.2-4.1-6.4c-1.3-2.5-2.5-5.3-3-8c-0.5-2.5-0.6-4.9-3.2-6.4c-0.2-0.1-0.3-0.4-0.4-0.6c-0.1-0.1,0-0.3,0-0.7
	c3,0.1,3.2-1.6,2.5-4c-0.1-0.4,0.4-1,0.6-1.5c0.5,0.2,1.1,0.3,1.5,0.7c2.6,2.1,5.3,4.2,7.8,6.5c0.7,0.6,1.3,2,1.1,2.8
	c-0.7,2.2-0.2,3.4,2.3,3.6c3.5,0.3,7.1,0.4,10.6,0.5c6.6,0.2,12.2,4.8,13.8,11.1c0.3,1.4,1.3,2.7,2.1,3.9
	C636.8,521,637.5,523.2,636.8,526.1z"/>
</svg>
