<?xml version="1.0" encoding="utf-8"?>
<!-- Generator: Adobe Illustrator 26.0.3, SVG Export Plug-In . SVG Version: 6.00 Build 0)  -->
<svg version="1.1" id="Layer_1" xmlns="http://www.w3.org/2000/svg" xmlns:xlink="http://www.w3.org/1999/xlink" x="0px" y="0px"
	 viewBox="0 0 1280 1024" style="enable-background:new 0 0 1280 1024;" xml:space="preserve">
<path style="fill:#A09E96;" d="M608.1,403.4c-1.7,11.3,1.4,22.4,2.5,33.5c0.7,7.5,1.5,15,1.6,22.5c0,1.6,0.7,2.9,1.9,3.9
	c0,0,0,0,0,0c8.1,14.9,13,31.1,19.6,46.6c4.8,11.3,9.6,23.1,6.9,36c-1.5,7.2-0.7,15-5.1,21.5c-4.3,7.4-3.4,15.5-2.2,23.3
	c2,12.5,2.4,24.9,0.4,37.4c-0.9,5.7-1.6,11.6,1.3,17.1c0.6,1.2,0.9,2.6,0.7,3.9c-1.8,9.9,0.7,19.2,3.7,28.5
	c1.2,3.5,1.1,7.2-0.7,10.6c-2.7,1.3-3.4-0.6-4.2-2.6c-3.2-8.6-6.7-17.1-9.6-25.8c-1-3.2-1.9-6.3-1.3-9.7c0.7-5.2,1-10.5,1-15.8
	c0-8.4,1.5-16.4,3.1-24.6c1.3-6.8,1.1-13.7,0.7-20.7c-0.3-7.1-1.1-14.8,0.9-21.7c2.6-8.7,1.1-16.7-0.7-24.9
	c-1.3-6.2-3-12.4-3.1-18.5c-0.2-8.4-2-16-5.5-23.3c-2.8-5.9-4-12.1-5.8-18.3c-0.7-2.3-2.1-3.6-3.6-5.1c-3.4-15.7-4.8-31.6-5.4-47.6
	c-0.2-5.5-1-10.9-1.3-16.3C603.3,407.5,604.4,404.9,608.1,403.4z"/>
<path style="fill:#C2BCAA;" d="M512.2,465.4c3.3-5.2,6.6-10.4,4-17c2.5-7,1.5-14.3,1.8-21.5c0.2-4.1,1.1-8.3,3.1-11.3
	c4.5-6.8,3-12.8,0.1-19.3c-1.8-3.9-3-7.7,0.3-11.6c1.4-1.6,3.1-2.4,5-3c0.8-0.2,1.9-0.6,2,0.6c0.1,0.6-0.8,1.3-1.3,2
	c-1.6,3-4,5.7-2.9,9.5c1.3,4.3,3.5,4.8,6.8,2c3.1-2.6,4.1-6.7,7-9.4c3-3.2,7.4-4,11.2-5.3c10.3-3.6,21-3.4,31.6-0.5
	c1.4,0.4,2.5,1.1,1.3,2.8c-2.2,1.6-4.8,0.7-7.2,0.9c-5,0.5-7.6,2.3-8.8,7.1c-1.5,5.9-6.3,7.2-11.2,8.3c-1.6,0.4-3.3,0.2-4.5,1.6
	c-0.7,0.4-1.4,0.6-2.1,0.7c-7.8,2.4-10.3,9.8-14.6,15.5c-3.7,4.9-5.1,11.2-9,16c-0.3,0.4-0.6,0.9-0.5,1.4c0.9,7.2-3.6,13.8-2.6,21.1
	c0.7,5-3,8.3-4.8,12.2c-2.6,6-5.9,11.8-9.5,17.3c-2.2,3.2-4.8,6-9.2,5.8c-1.2-0.3-2.3-1-2.6-2.1c-1.3-4.5-2.9-8.9-5.4-12.8
	c4.8-0.1,6.6,3.8,7.2,7c0.9,4.5,2.4,3,3.6,0.9C504.8,478,510.1,472.7,512.2,465.4z"/>
<path style="fill:#AAA79E;" d="M550.1,400.3c0.4-2.1,1.5-2.3,3.5-2.3c6.6,0.2,9.5-2.5,10.6-8.7c0.8-4.2,4.5-5.7,8-6.5
	c3.2-0.7,6.6-0.9,9.8,0.7c6.4,3,12.4,4.7,19.5,1c6.4-3.4,10.5,0.5,10.5,9c-2.5,0.5-3-1.3-3.4-3c-0.7-3-2.2-2.1-3.9-0.9
	c-1.7,1-3.6,1.6-5.2,2.8c-1,0.6-1.5,1.7-2.4,2.4c-5.3,3.3-11.3,3.9-17.2,4.9c-1.4,0.5-2.5,1.6-3.9,2c-2.7,0.7-4.7,1.8-5.7,4.8
	c-1,3-3.1,5.6-5.7,7.3c-4,2.5-6,5.8-6.5,10.4c-0.1,1.1-0.7,2.2-1.4,3.1c-1.3,1-2.5,2.3-4.3,1c-2-2.4-0.7-5.2-0.9-7.8
	c0-1.8,0.8-3.3,2-4.4c3.6-3.3,5.3-7.5,5.9-12.4c-1.9,0.6-3.3,2.5-5.5,2.4c-0.5-0.1-0.9-0.2-1.3-0.5
	C552,403.8,550.4,402.3,550.1,400.3z"/>
<path style="fill:#979385;" d="M604,388.3c3.9-2.8,5-2.5,6,2c0.3,1.4,0.8,2.4,2,3.1c0.7,4.1-3.3,6.4-4,9.9c-3.4,2.4-2.7,6.4-2.3,9.2
	c2.1,16.7,1.1,33.7,4.4,50.4c0.9,4.5,1.8,9.5,0.9,14.4c-0.2,0.1-0.4,0.3-0.6,0.4c-3.9-0.1-2.6-4.7-5.2-5.9c-3.2-5-2.3-11.1-3.9-16.6
	c-0.8-2.6-1-5.5-1-8.3c1.2-3.7,0.7-7.7,0.2-11.2c-0.9-6-0.2-11.9-0.8-17.8c-0.2-2.5-1-4.9-3-6c-4.3-2.5-7.4-6.6-12.2-8.3
	c-0.9-0.5-1.5-1.3-1.8-2.3c-0.1-0.5,0-1,0.3-1.4c1.3-1.3,3.2-2,4.5-1.4c6.1,3.2,7.8-1,9.5-5.3c0-1.1,0-2.2,1.1-2.9
	c0.5,0.5-0.2,0,0.4,0.3c1.4,0.9,2,3.7,4.1,2.8C604.7,392.7,604.2,390.3,604,388.3z"/>
<path style="fill:#A59D88;" d="M538.1,386.5c-0.1,6.5-5.1,10.2-9.1,14c-2.7,2.6-3.9-1.8-5.2-3.5c-3.7-4.8-2-10.8,3.3-12.6
	C531.1,383.5,534.3,386.6,538.1,386.5z"/>
<path style="fill:#9FA4AB;" d="M642.1,538.4c-1.2,1.2-1.1,2.8-0.9,4.2c1,7.8-2.6,14.8-3.7,22.1c-0.3,2-1.4,3.7-3.3,4.7
	c-0.7-1-0.7-2,0-3c4.7-5.9,3.3-13.3,5-20c3.5-13.6-2.7-25.4-7.3-37.3c-2.8-7.2-6.3-14.3-8.5-21.7c-1.9-6.3-5.6-11.7-7.9-17.7
	c-0.8-2.1-1.4-4-1.3-6.2c0.7,0.3,1.3,0.7,2,1c0.4,3.6,3.3,6,4.5,9.3c6.2,16.7,13.7,33,19.2,49.9
	C641.4,528.4,642.1,533.3,642.1,538.4z"/>
<path style="fill:#C5BEAD;" d="M472.1,702.3c-6.7,2-13.3,3.3-20,0c2,0.2,4,0.1,5.9,0.5c1.8,0.4,3.6,0.2,4.6-1
	c3.2-4,6.8-7.5,8.8-12.8c4.7-12.5,4.1-25.3,4.8-38.1c0.4-6.1,1.3-12.4,3.2-18.5c1.7-5.6,0.6-11.5,1.1-17.3
	c0.5-5.5,0.7-10.8,3.2-15.8c0.4-0.8,0.2-2,0.3-3c2.7-2.3,3.5-5.8,3.7-8.8c0.5-7,2.5-14,1.3-21.1c4.8,0.7,4.7,5.2,6.5,8.2
	c1.6,7.1,1.4,14.1-0.7,21.1c-1.7,5.7-3.6,11.4-1.7,17.5c0.4,1.2-0.1,2.6-0.6,3.9c-3,7.2-3,14.8-2.9,22.5c0.1,6.5-1.6,12.8-2.2,19.3
	c-0.2,1.7-0.7,3.4-0.1,4.9c2.2,5.5,0.9,10.8-0.5,16.1c-0.4,1.8-0.9,3.8-2.3,4.9c-5.3,3.9-8.2,9.3-10.2,15.4
	c-0.3,0.8-0.9,1.4-1.6,1.9C472.6,702.1,472.4,702.2,472.1,702.3z"/>
<path style="fill:#A8ADB7;" d="M638.1,645.3c0.4,9.8,1.3,19.5,4,29c3.1,6,9.4,6.7,14.8,8.9c2.9,1.2,6.2,1.4,8.9,2.9
	c3.7,2.1,4.1,5.5,1.2,8.1c-4.2,3.6-20.7,4.7-25.6,1.6c-0.4-0.5-0.6-1-0.8-1.5c-2-3.3-1.6-7-1.5-10.7c0.1-4.8-0.4-9.5-2.1-14.1
	c-2-5.3-2.5-10.9-1.9-16.6c0.3-3,0.4-5.8-0.5-8.8c-1-3.3-1.6-6.9,1.5-9.8c2.4,3-0.4,7,2,10C638.1,644.6,638.1,645,638.1,645.3z"/>
<path style="fill:#BDB8AC;" d="M484.1,556.4c-0.7,0-1.3,0-2,0c-6-6.4-12.2-12.7-16.1-20.6c-4.4-8.9-10.6-17.1-11.9-27.3
	c0.5-0.2,0.9-0.2,1.4,0c2.3,1.4,3,4,4.1,6.1c3.9,7.1,9.3,13.2,12.3,20.8c2.4,6,5.7,11.5,10.5,15.9c1.3,1.2,2.8,2.5,2.1,4.7
	C484.4,556,484.3,556.2,484.1,556.4z"/>
<path style="fill:#907A57;" d="M490.1,476.4c3.5,2.5,5.6,5.8,6,10.2c0.1,1.5,0.8,2.9,2,3.8c0.7,0.6,1.7,0.8,2.3,1.5
	c1.9,3.2,5.7,2,8.3,3.6c2.6,2.3,7.4,3.1,6.1,8.3c-4.1,2.3-7.5-1.3-11.3-1.3c-4.9,0-6.8-3-7.9-7c-1-1.2-2.6-1.3-3.9-2
	c-2-1.1-3.2-2.8-1.4-4.8c2.8-3.1,0.7-5-1.1-7.2c-1.5-1.8-4.1-2.9-3.9-5.9c0.2-0.5,0.4-0.8,0.8-1.2
	C487.5,475.1,488.8,475.8,490.1,476.4z"/>
<path style="fill:#907B54;" d="M486.1,474.4c0,0.4,0,0.7,0,1.1c-1,1-2.5,1.6-3.6,0.9c-2.9-2.2-5.7-0.6-8.5,0
	c-1.6,0.1-2.5,1.6-4.1,1.9c-2.4,0.2-3.2-1.9-4.8-3c-0.7-0.8-1-1.8-0.9-2.8c0.3-1.3,1.1-2.3,2.3-2.2c2.9,0.3,3.3-2.3,4.7-3.6
	C478.2,465.4,481.6,471,486.1,474.4z"/>
<path style="fill:#B2A68B;" d="M455.1,508.4c-0.3,0-0.6,0-1,0c-2.9-2.4-4.1-5.4-4-9.2c0.3-5.9-0.8-11.8,1.8-17.5
	c0.7-1.6,1.2-3,3.1-3.4c0.4-0.4,0.9-0.4,1.3,0c1.5,2.4-0.8,4.4-0.7,6.6c-1.5,6.1-1.7,12.1,0.4,18.2c0.5,1.5,0.5,3.3-0.4,4.8
	C455.5,508.1,455.3,508.3,455.1,508.4z"/>
<path style="fill:#ACA291;" d="M456.3,478.5c-0.4,0-0.8-0.1-1.3-0.1c5.2-4.2,9.9-9.1,16.2-11.8c0.2,4.3-4.8,3.1-6.1,5.9
	C463.5,478.6,461.1,480.2,456.3,478.5z"/>
<path style="fill:#BDB8AC;" d="M494.1,574.3c-1.7-2.6-2.5-5.8-5-8c-1.6-3.4-2.5-7.1-5-10c0,0,0.1-0.1,0.1-0.1
	c1.7-1.3,3.2-0.9,4.6,0.4c2.6,3.8,3.8,8.4,6.1,12.3C496,570.8,496,572.8,494.1,574.3z"/>
<path style="fill:#78746E;" d="M624.2,723.1c-1.7,0.7-3.4,1.4-5.1,2.1c-6.8-1.6-13.6-1.6-20.5-1.5c-6.4,0-12.1,3.3-18.4,2.6
	c-3-0.6-5.8-1.6-8.3-3.5c-2.8-2-5.3-2.1-7.4,1.1c-4.3,1.3-7.6-0.3-10.5-3.3c-0.2-0.5-0.1-1,0-1.5c1.5-1.7,3.2-3.1,5.5-3.4
	c3.3,1,6.7,0.5,10.1,1.2c2.6-0.4,5.9,2.4,7.7-1.7c1.3-1.4,2.8-2,4.6-0.7c2.1,2.6,4.5,4.5,8.1,4c1.3,0.1,2.7,0.4,3.9-0.3
	c6.3-3.6,13.4-1.7,20.1-2.6c1.8,1.8,3.8,3,6.3,3.6C622,719.5,624.4,720.1,624.2,723.1z"/>
<path style="fill:#736F69;" d="M554.1,719.3c0,0.3,0,0.6,0,1c0.5,3.1,3.6,2.1,5.3,3.3c0.9,0.6,2.8-0.7,2.7,1.6
	c-6.8-1.1-12.9,1.6-19.2,3.6c-4.6,1.4-5.6,0.7-4.9-4.2c0.3-1.9-1.6-1.3-1.9-2.4c4.1-3,8.2-6,13.7-5.7
	C552,716.6,553.7,716.8,554.1,719.3z"/>
<path style="fill:#89857E;" d="M554.1,719.3c-2-2.7-4.4-0.5-6.7-0.6c-2.1-0.1-4.1-1.6-4.8,2.2c-0.1,0.8-4.2,0.9-6.5,1.4
	c-0.3,0-0.6-0.1-1-0.1c-1-0.8-1.5-2.5-3.4-1.2c-1.4,0.9-3,1.3-4.7,0.4c0,0,0,0,0,0c-1.2-1.7-0.2-3.3,0-5c4.3-1.1,8.8-0.6,13.2-1.5
	c3.7-0.7,7.5-1.1,11.3-1.7c2.8-0.5,6.9-2.1,7.4,3.2C558,718.3,556.6,719.7,554.1,719.3z"/>
<path style="fill:#646058;" d="M564.1,723.3c1.3-5.1,5.8-5.5,11-0.8c1.6,1.5,3.5,2.4,5.1,3.7c-3.8,0.7-7.6,0.9-11.1-1.1
	C567.7,723.6,565.3,725,564.1,723.3z"/>
<path style="fill:#89857E;" d="M564.1,723.3c1.7,0.4,4.1-1,4.9,1.9c-2.3,0-4.6,0-6.9,0c-1.7-1.5-3.7-0.9-5.7-0.9
	c-3.2,0-3.7-1.4-2.3-4C557.7,720.3,560.2,724.2,564.1,723.3z"/>
<path style="fill:#736F69;" d="M527.1,721.3c6.8-2.3,6.8-2.3,11-1.4c0.7,2.9-4.1-1.3-2.9,2.3C532.5,721.9,529.5,724.2,527.1,721.3z"
	/>
<path style="fill:#78746E;" d="M626.1,724.2c-0.8-6.8-0.8-6.8,6-4.4c1.8,0.6,4,3.2,3.8-1.9c-0.2-3.1,4.1-3.1,6.5-3.3
	c11.5-1.1,23.1-2,34.7-2.6c2.6-0.1,6.5-0.2,4.9,4.7c-0.1,0.3,0.8,1,1.2,1.5c0,2.1-1.2,3.1-3.2,2.8c-1.8-0.3-3.5-0.8-5.2-1.5
	c-7.2-3.4-8.8-3-14.2,2.8c-2.3,1.4-4.8,2.3-7.5,2.1c-6.3,0.6-12.4-3-18.9,0.1C632.2,725.1,628.7,726,626.1,724.2z"/>
<path style="fill:#3F3D39;" d="M653,724.2c2.3-1,4.3-2.9,7-3.1c3.9-2.6,8.2-3.6,12.8-2.4c4.7,1.2,9.5,1.8,14.3,2.5
	c0.7,1.9-1,2.2-1.9,3c-1.5,0.7-3.1,0.9-4.8,1c-7.9,0.4-15.8-1.4-23.7,0C655.4,725.4,654,725.3,653,724.2z"/>
<path style="fill:#9F967F;" d="M625.1,650.3c-1.1,5.7,2.9,10,4,15.1c0.9,4,1.7,8,4.2,11.6c1.7,2.4,3.1,5.1,2.8,8.3
	c-0.1,1.4,0.3,2.6,1.9,3c1.2,2.2,3.2,4,2.9,6.8c-1.9,3.9-4.8,5.3-9,3.6c-1.2-1.3-0.8-2.6-0.2-4.1c1.8-4.5-0.3-7.3-5.2-7.1
	c-1.3,0.1-2.6,0.2-3.9-0.2c-3.1-1.4-5-3.7-5.6-7.1c-0.4-2.6-2-4.5-3.4-6.6c-1.5-2.2-3-4.4-2.6-7.3c4.7-4.9,3.3-11,2.2-16.4
	c-1.3-6.3,0.2-11.1,4.2-15.5c2-1.9,2.9-5.3,6.5-5.2c1.5,1.2,1.7,3,1.6,4.5C625,639.2,624.6,644.7,625.1,650.3z"/>
<path style="fill:#979385;" d="M625.1,650.3c-0.9-4.5-1.5-9-0.2-13.6c0.7-2.6-0.1-5.2-1.8-7.4c-3-1.1-2.7-3.8-3-6.3
	c-0.9-7.5,1.9-14.4,3.5-21.4c2-8.6,2.7-17.2,1.5-26c-0.6-4.5-0.3-9,0.9-13.3c1.6-5.9,0.8-11.4-1.3-17c-2-5.2-4.2-10.5-4.6-16.2
	c-0.5-3.9,1.8-7.3,1.6-11.2c-0.3-6.5-2.9-12.2-5-18.1c-2-5.9-2.9-12.2-6-17.8c-0.8-1.5-0.9-3.2,0.4-4.6c0,0,0,0,0,0
	c1.8,0,3.6,0.3,3.8,2.4c0.5,4.6,3.4,8.4,3.5,13.3c0.1,3.1,2.8,5.8,3.9,9c2.4,6.9,3.8,13.8,4.8,21.1c0.8,6.3,2,12.8,3.4,19.1
	c2,8.8,2.9,17.5,0.4,26.9c-2.2,8.2-1.8,17.4-0.6,26.1c0.9,6.1-0.3,12-1.4,18c-1.3,6.5-2.9,12.9-2.8,19.6
	C626,638.6,625.4,644.5,625.1,650.3z"/>
<path style="fill:#A1A098;" d="M640,695.2c0.2-2.6-2.7-4.2-2-6.9c0.7-7.1-0.5-13.6-4-20.1c-2.1-3.9-1-9.1-0.4-13.6
	c0.5-4.1,0.3-7.6-1.7-11.4c-2.6-4.8-1.1-10.4-0.2-15.5c2.1-12.2,1.9-24.3,0.1-36.6c-1.2-8.3-2.3-16.9,2.4-24.8c0,1,0,2,0,3
	c-2.3,9.8-2,19.3,1.2,29c2.5,7.6,2.3,16,1.4,24c-0.5,4-0.4,7.9-0.6,11.9c1,12.7-0.9,25.6,3.7,38c0.9,2.3,0.4,5.2,0.3,7.9
	c-0.1,4.8-0.1,9.6,2,14C641.6,695,641.2,695.9,640,695.2z"/>
<path style="fill:#BDAF94;" d="M499.2,492.5c-0.4-0.7-0.7-1.4-1.1-2.1c3.2-0.5,5.5-2.5,7.2-4.9c5.7-8.1,9.4-17.3,14.4-25.8
	c0.4-0.7,0.5-1.6,0.4-2.4c-1.1-7.4,2-14.3,2.4-21.5c0.3-4.7,4.2-9.2,6.3-13.8c2.8-6,7.5-10.7,10.5-16.6c1.6-3.2,5.7-3.6,8.9-4.9
	c1.4,1.9,3.5,2.9,4.8,4.8l0.1,0.3c0.1,2-1.4,2.6-2.8,2.9c-4.2,1-2.6,4-2.3,6.4c0.4,2.8,1.6,5,5,4.5c0,3,0,6,0,9
	c-1.1,1.2-2.5,1.2-3.5,0.3c-3.2-2.6-5.2-1-7.2,1.7c-2.5,3.4-6.9,2.5-10.2,4.3c-1.8,0.3-3,1.2-3.4,3.1c-1.3,5.5-3.5,10.7-3.8,16.4
	c-0.2,3.2-1.2,6.2-2.4,9.1c-3.2,7.6-8.5,14.1-11.1,22c-1.3,3.9-4.7,6.3-8.4,8.1C501.6,493.8,500.4,493.1,499.2,492.5z"/>
<path style="fill:#3A352D;" d="M553,405.3c-4.1,0.9-5.5-1-4.8-4.8c0.6-0.1,1.3-0.2,1.9-0.2C552.7,401,555,401.9,553,405.3z"/>
<path style="fill:#B2A180;" d="M532.1,433.4c0.8-1.5,2.1-2.2,3.7-1.9c3.4,0.5,5.4-1.3,6.6-4.1c1.6-4,4-3.2,6.6-1.3
	c1.3,1,2.2,2.6,4.1,2.3c1-0.7,2-1.3,3-2c1.7,1.4-0.1,3.4,1.1,4.9c0.5,1,1.4,1.6,2.3,2.2c0.3,0.3,0.6,0.7,0.8,1.1
	c-0.1,4.5-0.5,9.1-0.2,13.6c0.3,3.3-3.6,4.8-6,2.1c-3.7-4-8.9-5-13-8c-1.8-1.3-2.7-0.4-3.3,1.3c-1.2,4.4-4.1,8-5.4,12.4
	c-0.3,1-1.2,2-2.6,1.3C527.2,449,525.8,440.9,532.1,433.4z"/>
<path style="fill:#92938F;" d="M555.9,432.5c-3.3-2.2,0.4-4,0.2-6.1c0.8-5.8,2.3-11,8-14.5c2.5-1.6,5-4.5,5.5-8.5
	c0.4-3.3,3.9-3,6.5-3c2.2,0.7,2.2,3,3.4,4.5c0.8,3.2,5,2.6,6,5.4c1.1,3-3.2,4-2.8,7.1c0.3,2.4,0.5,5-0.1,7.4
	c-0.5,1.9-1.4,3.7-3.5,3.7c-2.3,0-2.1-2.2-2.4-3.7c-0.8-4-1.3-8.1-6.7-8.4c-8-0.3-9.3,0.9-9.5,8.4
	C560.6,428.3,558.3,430.5,555.9,432.5z"/>
<path style="fill:#C2BCAA;" d="M553.1,419.4c-0.5,1-1,2-1.5,3c-6-2.3-5.4-7.9-6.3-12.6c-0.3-1.8,0.5-3.4,2.8-2.8
	c2,0.5,3.5-0.2,5-1.4c2.2-1.6,4.5-3.1,6.7-4.7c0.6-0.5,1.1-1.4,2-0.8c0.8,0.6,0.4,1.4,0.3,2.2C560.9,409,558.4,414.9,553.1,419.4z"
	/>
<path style="fill:#92938F;" d="M597.1,393.4c0.9,3.2-1.4,5.9-1.4,9.1c0,1.5-1.6,1.5-2.5,0.4c-2.8-3.2-6.4-2.9-10-2.6
	c-1.5-0.4-3.3-0.2-4.1-2C585.1,396.7,591.1,395.1,597.1,393.4z"/>
<path style="fill:#716B5B;" d="M604,388.3c1.4,0.5,3.3,0.9,2.5,2.9c-0.8,2.1-1.8,4.6-4,5.4c-1.7,0.6-3-1.1-3.6-2.8
	c-0.4-1.1-0.5-2.2-0.7-3.4C600.1,389.8,602.1,389.1,604,388.3z"/>
<path style="fill:#979385;" d="M579,398.4c1.6,0.1,3.5-0.3,4.1,2c0,0-0.1,0.2-0.1,0.2c-1.1,2-2.5,3.6-4.5,4.8
	c-0.2,0.1-0.4,0.1-0.6,0.2c-0.6-1.7-1.2-3.4-1.8-5.1C576.7,399.2,577.7,398.5,579,398.4z"/>
<path style="fill:#A69571;" d="M611.1,477.4c2.5,7.3,5.2,14.5,7.5,21.8c2.1,6.6,5.2,13.1,5.2,20.2c0,3.2-1.6,6-2.7,8.9
	c-4.4,4.5-7.6,10.3-14,12.4c-3.9-0.1-6.4,1.4-7.8,5.4c-1.5,4.1-3.4,4.7-7.3,2.3c-3.4-2.1-6.1-2.1-9.5,0.4c-3.8,2.8-7.8,2.2-11.7-0.8
	c-0.4-2,1.4-3,2.3-4.4c3.3-4.4,9.2-6,11.7-11.2c1.2-1.7,1.8-3.9,3.6-5.1c5-1.9,6.4-8,11.4-10c0.8-0.5,1.7-0.7,2.7-0.9
	c2.4-1.3,4.5-0.3,6.4,0.7c0.6-4-3.3-7.8-0.6-12.1c0.8-1.2-0.6-1.6-1.5-1.9c-1.8-0.6-4.4-0.6-4.2-3.4c0.3-3.1,3.4-1.7,4-2.1
	c0.4-5.4-2.3-9.6-2.3-14.5c-0.2-1.2-1.3-1.5-2-2.2c-2.1-3.8-0.4-7.2,4.8-9.6C610.2,472.3,607.8,476.7,611.1,477.4z"/>
<path style="fill:#868276;" d="M570,414.6c5.8,0.9,8.8,5.4,8.9,13.2c3.3-2.2,1.9-5.4,2.2-8.2c0.3-2.7-2.6-6.6,2.9-7.7
	c1.6-0.3,0.2-2.1-0.9-2.2c-2.8-0.3-3.9-2.2-5-4.3c0,0,0.4-0.2,0.4-0.2c2-1.5,4.7-1.3,6.8-2.9c5.9,0.2,8.6,5.9,13.4,8.2
	c4.4,2.2,4.2,8.5,3.4,12.9c-1.1,6.1,2.1,11.9,0.6,18c-0.3,1.4-0.1,3.2-0.4,4.8c-3.1,0.4-3.6-2.6-5.3-4c-3.3-3.9-7.1-7.4-7.3-13.1
	c0-1.1-0.6-2.4-2-2.5c-1.4-0.2-2,1-2.6,1.9c-0.9,1.4-1.4,3-2,4.5c-1,2.2-2.3,4-4.5,5.1c-1.5,0.7-3.2,1.2-4.7,0
	c-1.6-1.2-1.4-2.8-0.6-4.5c1.3-1.4,1.3-2.8,0.2-4.4c-1-1.5-1.5-3.2-1.5-5.1C573,420.8,569.6,418,570,414.6z"/>
<path style="fill:#968564;" d="M598.1,441.4c1.3,1.7,2.7,3.3,4,5c0.5,7.1,3,13.9,3.1,21.1c0,1.5,0.8,2.9,1.9,3.9
	c0,2.1-5.3,2.8-1.5,5.7c-1.2,2-3-1.6-3.7,0.6c-0.2,0.6,0.8,1.7,1.2,2.5c-0.4,1.2-1.5,1.6-2.4,2.2c-2.1,1.3-4.3,2-6.3,0.2
	c-1.9-1.7-0.2-3.6,0.4-5.4c0.5-3.7,0.7-7.4,1.4-11.1c0.7-3.4-3.1-3.3-4.5-5c1.5-5.6,3.1-11.1,3.2-16.9
	C594.9,442.9,595.8,441,598.1,441.4z"/>
<path style="fill:#282929;" d="M585.1,402.4c-0.7,4.6-3.5,4.2-6.8,2.9c0.2-2.9,1.5-4.8,4.7-4.8C583.7,401.2,584.4,401.8,585.1,402.4
	z"/>
<path style="fill:#645B48;" d="M534,391.8c-0.3,1.5-1.2,1.8-2.2,1.6c-2.1-0.3-3.1-1.8-3.2-3.7c-0.1-1,0.8-1.4,1.7-1.1
	C532.1,389.1,533.5,390.1,534,391.8z"/>
<path style="fill:#BFB193;" d="M483.2,702.2c-3.7,0-7.4,0-11.1,0.1c0.9-5.3,4.6-9.4,5.6-14.7c0.1-0.6,0.7-1.3,1.3-1.4
	c5-1.2,5.8-5.1,6.6-9.4c0.8-3.9,1.9-7.6,0-11.6c-2.2-4.7,0.2-9.6,0.9-14.1c1.3-8.1,0.6-16.1,1.6-24.1c0.1-0.7-0.2-1.4,0.1-2
	c4.6-10.8,0.9-23.1,5.8-33.9c2.5-5.5-0.3-11.2,0.1-16.7c0.7-4.7-2.7-7.9-4.1-11.9c-0.6-1.7-1.3-3.4-1.9-5.1c4.9-0.1,4.8,4.8,7.4,7.1
	c2.4,3.7,3.5,8.2,6.9,11.4c1.7,1.6,2.1,4.1,2.4,6.4c0.4,3.1,1,6.2,1.9,9.3c2,6.5-0.4,12.2-2.5,18.3c-3.9,11.2-7.9,22.4-8.1,34.6
	c-0.2,11.6,0.1,23.3-1.9,34.9c-1,5.8-4,9.2-8.7,11.8c-2.6,0.9-5.2,1.5-6.4,4.7c-1,2.7,0.3,2.7,2,3.1c0.5,0.1,0.9,0.3,1.3,0.6
	C483.2,700.3,483.6,701.1,483.2,702.2z"/>
<path style="fill:#B5AFA6;" d="M642.1,695.3c-1.9,3.6-0.7,4.7,3.3,5.1c5.3,0.5,10.5,1.9,15.7,2.9c-6.3,0-12.6,0-18.9-0.9
	c-1.8-0.3-3.2,0.3-4.1,2c-7.9-0.3-15.7,0.8-23.5,1.7c-2.7,0.3-5,1.5-7.5,2.1c-1.7,1.6-3.6,2.5-5.9,2c-4-0.9-7.5-0.9-9.8,3.3
	c-0.5,0.8-1.7,0.9-2.7,0.9c-4.2-0.5-8.1-2.5-12.3,1.4c-1.6,1.4-6,1.9-8.8-0.2c-2.1-1.6-1.9-3.7-0.7-5.8c-1.9,0.3-1.3,2.1-2,3.1
	c-0.8,1.2-1.9,2.5-3.2,1.8c-4.1-2.4-9.6-1.1-12.8-5.3c-0.2-2.1,1.5-2.2,2.9-2.8c1.6-0.7,4.5,0.3,3.9-3.1c-0.5-2.9-3.8-5.3-6.5-4.7
	c-2.1,0.4-4.1,1.3-6.3,0.9c-2.1-0.5-4-1.2-2.1-4c1.2-0.9,2.6-1.4,3.9-2.1c1.1-0.5,2.3-0.9,3.6-0.9c4.5-0.2,9-0.4,11.8,4.4
	c0.5,0.8,1.3,1.1,2.2,0.7c3.6-1.5,7.6-0.2,11.2-1.4c1.8-0.4,3.5,0.5,5.2,0.4c3.2,0.7,6.4,1.7,9.5,0.1c4.8-0.6,9.5,1.4,14.3,0.3
	c4.6,0.8,8.5-1,12.1-3.7c0.5-0.3,0.9-0.4,1.4-0.5c3.6-0.6,6.8,0,9.4,2.7c1.8,1.9,4.9,0.4,6.6,2.6c3.1,0.2,5.8-0.8,8-3
	c0.7-0.3,1.4-0.6,2-1C642.1,694.6,642.1,694.9,642.1,695.3z"/>
<path style="fill:#B2A68B;" d="M494.1,564.4c-2.8-1.6-3.2-5.4-6-7c-1.3-0.4-2.6-0.7-3.9-1.1c-1.9-5.1-7.2-7.5-9.6-12.3
	c-6.2-12-13-23.7-19.5-35.5c0,0,0.3-0.2,0.3-0.2c4.5,0,5.5,3.6,7.3,6.6c1.7,3.8,4.7,6.7,7.6,9.5c3.5,3.4,5.9,6.9,5.8,11.9
	c0,4.2,3.3,6.8,5.5,9.6c3.1,3.9,6.4,7.8,11,10.4C496,558,496.3,560.4,494.1,564.4z"/>
<path style="fill:#A58149;" d="M607,482.4c-2.7,5-2.1,5.9,4.8,6.7c-1.8,1.9-4,3.1-5.1,5.4c1.5,1,5.4-0.7,4.7,2.6
	c-1,4.4-5.4,1.3-8.4,2.7c1.9,1.8,4.1,1.3,6,1.7c2.6,0.5,4.3,1.8,1.5,4.2c-4,3.5-2.1,5.1,1.8,6.2c0.4,2.1-3.4,1.5-2.4,3.6
	c0.8,1.7,3.2,0.2,4.6,2c-2.7,1.4-5.4,1.3-7.9,0.3c-1.5-0.6-2.4-0.5-3.5,0.5c-1-0.6-2.1-2.9-3,0.1c-4.2,2.7-5.8,8.4-11,10
	c-0.1-7.3,3-12.8,8.2-17c-3.5,0.4-5.7,1.8-7.8,5.3c-1.1,1.9-1.9,3.9-3.3,5.5c-0.3,0.3-0.7,0.6-1.2,0.8c-2.2,0.3-3.5-1.3-3.2-2.9
	c0.8-4.8-2.2-9.9,1.6-14.3c-3.6,3.2-7.9,5.6-10.6,9.8c-1.5,2.3-3.6,4-3.9,7.2c-0.3,2.9-2.9,3.3-5.1,1c-2.6-2.7-3.4-6.4-4.2-9.6
	c-0.8-0.3-1.1-0.2-1.3,0.2c-0.9,1.5-0.7,4.4-3,3.9c-2.2-0.4-1.9-3.2-2.1-5.1c-0.3-2.9,0.3-5.9-0.1-8.8c-1.6,2.4-1.4,5.4-2.8,7.9
	c-2.6,4.5-4.9,5.2-9.2,2.3c-2.1-1.4-4.2-2.7-6.1-4.4c-2.5-2.2-5.1-3.7-8.6-2.1c-1.4,0.6-3.3,0.7-4.1-0.7c-1.7-2.6-4.6-2.3-6.9-3.5
	c-0.1-0.2-0.3-0.4-0.4-0.6c-1.8-2.9-4.5-4.8-7-7c0.1-0.2,0.3-0.4,0.4-0.6c3.3-1.7,6.4,0.6,9.7,0.4c0.5,0,1.1,0.6,1.4,0.4
	c3.7-1.7,7.1-3.7,11.4-0.9c0.9,0.6,3.2-2.8,4.4-4.9c0.9-1.6,2-3.7,4.1-2.8c2.5,1.1,1.4,3.4,0.8,5.2c-0.4,1.3-1.2,2.4-1.8,3.6
	c-0.5,1-1.4,2-0.2,3.1c1.1,1,2.1,0.4,3.2-0.1c1.5-0.7,3.1-2,4.6-0.5c1.7,1.8,0.3,3.6-0.6,5.4c1.4-1.9,2.7-3.4,1.3-6.4
	c-1.9-4.2,1.4-11.1,5.2-12.7c1.9,0.7,2.6-0.5,3.4-1.9c0.8-1.5,1-3.2,1.6-4.7c0.5-1.2,1-2.6,2.6-2.8c1.8-0.1,2.5,1.3,3.1,2.7
	c0.4,0.9,0.7,1.9,1,2.8c0.4,1.3,1.2,1.5,2.2,0.6c0.5-0.5,2.3,0.4,1.5-1.6c-0.6-1.5-0.5-3.2,1.3-3.7c2.1-0.6,2.9,1.2,3.5,2.8
	c0.5,1.5,0.7,2.4,3,2c7.2-1.3,9.8,0.6,11.8,7.8c0.2,0.6,0.6,1.2,0.9,1.8c0.3,0.4,0.4,0.8,0.6,1.3c0.4,3-0.8,7.1,4.9,6.1
	c3-0.5,4.6-2.6,3.3-5.4c-0.3-0.7-1.1-1.3-1.4-2c-2.2-5.1-1.1-7.4,4.2-8.5C601.9,482.3,604.4,480.5,607,482.4z"/>
<path style="fill:#674C2C;" d="M473.2,475.4c4.3-5,8.6,0,12.9,0.1c1.3,3.2,4.9,4.2,6.6,7.2c2,3.6,2.5,6.2-2.1,7.9
	c1.4,3,4.9,0.7,6.5,2.8c2.5,5.4-2.7,8.2-4.4,12.8c2.5,0.2,4.1-2.1,6.2-1.4c3.1,2.9,4.1,9.5,1.5,13.1c-1.9,2.7-4,5.3-6.3,7.7
	c-3.8,4-5.8,3.4-8.8-2c-0.7-1.3-0.1-2.8-0.7-4.4c-1.5,1.7-2.2,3.9-3.7,5.5c-0.4,0.3-0.8,0.6-1.3,0.7c-5.3,0-6-4-6.8-7.9
	c0-0.5,0.1-1,0.3-1.5c1.1-2.8,2.4-5.4,4.8-7.3c-2.8,2.2-4.7,6.2-8.4,6.2c-3.6,0-4.6-4.8-7.7-6.3c-0.1-0.5-0.1-0.9,0.1-1.4
	c3.6-1.7,6.5-4.5,9.8-6.6c4.1-2.6,8.3-5,13.3-4.5c-9.1-3.1-18.1,0.5-22.6,9.1c-0.3,0.6-0.7,1.1-1.3,1.5c-2.8-0.2-2.8-2.5-3.1-4.3
	c-0.6-3.4-0.8-6.9-1.7-10.2c0.5-2,1-4,1.2-6c1.5-2.2,1.6-5.7,5.4-5.7c0.5,0.4,1,0.8,1.5,1.6c-0.3-1.2-1.3-1.2-1.8-1.8
	c-0.8-3.1,1.9-4.1,3.4-5.7c2.1,0.1,1.8,3.2,4,3.1c1.3,0.4,1.4,2.2,2.8,2.5C473.9,478.5,472,476.9,473.2,475.4z"/>
<path style="fill:#B6945D;" d="M530.1,457.4c0.9-5.4,4.6-9.7,6-15c4.5-0.8,6.3,0.5,8.4,5.8c-2.2,4-5.5,7.4-3.8,12.8
	c0.8,2.5-1.7,4-4,4.9c-5.3,2.1-8.6,8.5-8.8,14c-0.2,4.8-2.3,9.5-4.3,14c-0.9,2-2.8,2.5-5.1,2.3c-3.4-0.3-6.9-0.7-10.3,0.2
	c0,0,0,0,0,0c-2.9-1.5-7.8,1.6-8.9-3.9c1.3,0,2.6-0.1,3.9-0.1c5.5-1.6,9.6-4.9,12.1-10.1c0.3-0.6,0.8-1.2,0.8-1.8
	c-1-9.2,7.5-13.7,10.4-21C526.9,458.1,528.5,457.3,530.1,457.4z"/>
<path style="fill:#84653A;" d="M498.2,505.4c-1.1,1-2.1,2.1-3.2,3c-1.3,1-2.7,1.3-4.1,0.1c-1.7-1.4-0.2-2.4,0.2-3.7
	c1.2-4.3,7.5-5.8,6.1-11.4c0.4,0.3,1.1,0.7,1.1,0.9c-1,6.3,3.2,6.2,7.5,6.6c3.2,0.3,5.9,2.9,9.4,2.5c0,0,0,0,0,0
	c3.8,1.9,8.7,2.6,9.3,8.1c-1.8,2.6-3.8,3.1-6.1,0.7c-2.3-2.3-3.7-1.8-5.1,1c-1.4,2.8-3.9,4.1-7,3.3c-3.4-0.9-4.5-3.4-4.6-6.8
	C501.6,507.5,502,504.7,498.2,505.4z"/>
<path style="fill:#998153;" d="M466.2,474.4c0.9,3-2.7,3.5-3.1,5.8l-0.1,0.1c-2.1,1.7-2,5.1-4.8,6.1c-0.6,0.4-1.2,0.2-1.8,0
	c-0.8-0.6-1.5-1.4-2.2-2.1c-0.7-2.5,1.3-4,2.2-5.9c4.6,0.4,6.3-3.4,8.8-6.1C465.5,473.1,465.9,473.8,466.2,474.4z"/>
<path style="fill:#2C261E;" d="M473.2,475.4c0.2,0.3,0.3,0.6,0.5,0.9c1.3,1.6,3.2,3.1,1.7,5.6c-0.7,1.2-1.7,1.5-2.9,1
	c-2.8-1-2.1-3.4-2.2-5.4C471,476.5,471,474.4,473.2,475.4z"/>
<path style="fill:#927E58;" d="M454.2,484.4c1.1,0,2.2,0,3,1c-1,2.1,0.6,4.1-0.1,6.2c2.8,2.3,2.5,5.3,2.7,8.5c0.1,2-0.3,4.4,1.5,6.1
	c0.9-0.1,1.3,0.3,1.2,1.2c0,0.3-0.1,0.7-0.1,1c1.9,2.8,6.7,4.5,3.9,9.3c-2.3,0.7-3.3-1.6-5-2.3c-1.6-2.7-3.3-5.2-5.8-7.1
	c-1-4.1-2-8.3-3.2-12.3C451,491.7,454.7,488.4,454.2,484.4z"/>
<path style="fill:#9D988F;" d="M549.1,709.3c4.1,1.2,8.4,1.8,12.3,3.9c2.4,1.4,2.4-0.4,2.2-2c-0.2-1.4,0.4-3.5,1.4-3.2
	c2.2,0.8,4.4-1,5.9,0.1c1.5,1.1-0.3,1.8-1.4,2.1c-1.5,0.3-2.5,1-2.1,2.7c0.3,1.8,1.8,2.7,3.3,2.2c2.7-0.9,6.6,1.6,8.4-3.2
	c0.3-0.9,6.2-0.9,9.1,1.4c-0.2,1-0.8,1.7-1.5,2.4c-1.9,1.3-3.8,2.5-5.5-0.4c-1.7-1.6-2.3-0.1-3.1,1c-2,3.4-5.4,0.7-7.9,1.9
	c-3.7-0.5-7.9,1.8-11.1-1.8c-2.3-3.5-5.5-2.1-8.4-1.2c-3.3,1-6.4,1.5-10,1.3c-3.3-0.2-7,0.9-10.2,1.6c-3,0.7-2-1.9-3.3-1.8
	c-3.2-1.1-4.1,3.2-7,3c-2.3-0.4-4.7-0.8-5.5-3.5c-0.5-1.9-2-1.8-3.6-2c-6-1-12.2-0.7-17.7-4c-1.3-0.7-3.6-0.3-5.3,0.5
	c-12.3,1.8-24.6,0-37,0c5.7-2,11.4-3.4,17.3-0.5c1.2,0.6,2.2-0.3,3.3-0.4c8.3-0.6,16.7-2.1,24.8-2c5.4,0,11.2,3.7,16.9,2.1
	c7.3-2,13.6,3.5,20.7,1.8C538.7,707.3,543.8,707.4,549.1,709.3z"/>
<path style="fill:#6C6558;" d="M512.2,717.4c-5.2-0.4-10.6,0.4-15.6-2.1c-2.1-1.1-3.9,1.5-6.2,0.9c-1.3-0.3-3.5,0.7-3.7-1.4
	c-0.2-1.9,1.2-3.4,3.4-3.6c1.3-0.1,2.7-0.1,4-0.1c3-0.9,5.8-0.8,8.5,0.9c2.8,1.8,6.1,1,9.2,1.6c2.1,0.4,4,0.6,3.6,3.5
	C514.4,718.2,513.4,718.2,512.2,717.4z"/>
<path style="fill:#898376;" d="M515.1,717.1c-0.2-0.4-0.5-1.2-0.7-1.2c-7.4,1-13.2-4.5-20.2-4.7c-1.8-1.6-4-0.7-6-1
	c2.5-1.5,5-1.9,7.9-0.4c2,1,4.5,1.1,6.8,1.1c7.2-0.1,13.3,2,17.4,8.4c-1.1,1.3-2.6,0.9-4.1,0.9C515.2,719.3,514.2,718.5,515.1,717.1
	z"/>
<path style="fill:#9D988F;" d="M515.1,717.1c0.3,1,0.6,2.1,1,3.1c-1.9,0-3.9,0-5.8,0c-0.3-2,1.4-1.9,2-2.8
	C513.2,717.3,514.1,717.2,515.1,717.1z"/>
<path style="fill:#575249;" d="M623.2,714.3c-3,0.7-6.5-1-9,2c-5,0.3-9.9,2.4-15,1.1c-1.4-0.3-2.5,0.8-3.5,1.5
	c-2.1,1.5-4.2,1.7-6.4,0.3c0-0.2-0.1-0.5-0.2-0.7c5.3-4,10.5-7.7,17.9-5.6c3,0.9,6-1.4,9.1-1.9C619,710.5,622.4,709.5,623.2,714.3z"
	/>
<path style="fill:#918C82;" d="M581.2,715.2c2,1.6,3.4-0.1,4.9-1c1.3-0.9,2.8-0.3,4.3-0.5c2,0.9,0.9,2,0.2,2.9
	c-0.6,0.8-2.1,1-1.4,2.6c0,0,0,0,0,0C586.8,720.9,582.5,718.8,581.2,715.2z"/>
<path style="fill:#969187;" d="M570.1,718.1c2.2-2.5,5.6-0.1,7.9-1.9C576.5,721.3,573.2,719.2,570.1,718.1z"/>
<path style="fill:#C1BDB7;" d="M549.1,709.3c-5,0.7-10,1.3-15,2c-1.5-0.7-3-1.4-4.5-2c-2.3-0.9-5.2-1.6-5.2-4.6c0-2.6,0-5.7,3.4-7
	c0.5-0.2,0.9-0.9,1.3-1.4c4-2.4,7.9-2.5,11.9,0.1c1.4,2.1,2.9,2.4,5.8,1.3c5.3-2,10.2,0.6,11.4,6.1c0.6,2.7-0.9,4-3.4,4.3
	C552.9,708.5,550.8,707.7,549.1,709.3z"/>
<path style="fill:#8C6F44;" d="M497.2,701.1c-3.3,1-6.7,0.4-10,0.1c-2.7-6.1-0.8-9.9,5.5-10.5c2.7,0.1,5.2-0.2,7.6-1.6
	c3.1-1.9,6.7-1.7,10.2-1.7c2.8,0,4.8-0.4,4.4-4.1c-0.3-2.2,0.3-4.4,3.4-4.3c0.7,0.5,1.3,1.2,1.3,2c0.1,5,2.4,9.4,4.1,13.9
	c-0.1,0.5-0.3,0.9-0.6,1.3l0,0c-4.7,0.8-9.3,2.6-14.1,2.9c-2.3,0.7-4.6,1.3-6.9,2C500.5,698.9,498.8,698.6,497.2,701.1z"/>
<path style="fill:#A98E65;" d="M494.1,692.2c-7.7-1.2-5.8,5.1-7,9c-1.3,0.3-2.6,0.6-3.9,1c-0.4-0.6-0.8-1.2-1.1-1.7
	c0-0.6,0.1-1.2,0.1-1.8c-0.2,0.6-0.5,1.1-1,1.6c-1.8-0.2-3.5-0.3-5.9-0.5c2.6-4,2.9-9.2,8.9-9.4c1.7-0.9,3.6-0.9,5.3-1.6
	c5.7-0.4,10.3-5.5,10.5-12.7c0.2-6.5,2.2-13-0.1-19.6c-0.8-2.3-1.8-6.4,3.4-6.2c0.5,0.1,1,0.3,1.5,0.6c0.4,0.3,1,0.8,0.9,1.1
	c-1.4,4.3,2.4,7.7,2,11.8c0.2,0.6,0,1.5,0.4,1.9c4.2,5.4,3.4,10.8-0.1,16.1c-3.2,4.7-6.9,9-13,10.1
	C494.6,691.8,494.4,692,494.1,692.2z"/>
<path style="fill:#A69580;" d="M509,699.1c2.4-1.2,5-1.9,7.3-3.7c2.1-1.6,4.3,1.8,6.8,0.8C518.9,699.5,514.3,701,509,699.1z"/>
<path style="fill:#594024;" d="M497.2,701.1c0.2-2-0.8-4.2,0.9-6.7c1.2,2.5,4.5,3.3,4.1,6.6C500.5,701.1,498.8,701.1,497.2,701.1z"
	/>
<path style="fill:#A79C8B;" d="M523.1,696.3c0-0.3,0.1-0.6,0.1-0.9c1.3-1.9,3.2-2.1,5.2-2.1c3.6,0.9,7.1-0.3,10.7-0.1
	c2.3,0.1,4.6-0.1,6,2.3c-1.2,1.1-2.7,0.8-4.1,0.9c-4,0-7.9,0-11.9-0.1C527.2,696.3,525.1,696.3,523.1,696.3z"/>
<path style="fill:#7E776B;" d="M589.1,719.2c-3.7-3.4,2.3-2.9,2-4.9c1.1-3.6,3.7-5.3,7.2-4.5c3.1,0.7,5.7-1.8,8.7-0.7
	c5.2-0.9,10.3-2,15.5-2.8c1.6-0.2,4.5-1.1,4.7,0.9c0.2,1.8,0.9,5.1-2.4,6.1c-0.6,0.2-1.2,0.6-1.8,0.9c-2.2-3.2-5.3-2.1-7.9-1.3
	c-4,1.3-7.7,3.4-12.2,0.8c-1.8-1.1-4.1,0.7-6,1.5C594.3,716.6,591.7,717.9,589.1,719.2z"/>
<path style="fill:#5F5B54;" d="M684.1,718.3c-0.2,2.3,4.4,0.9,3.1,4c-9-1-18-3.1-27.1-1.1c3.9-6.6,5.7-7.2,12.6-4.3
	c2.2,0.9,4.7,1.3,6.8,2.5c2,1.1,2.6-0.3,3.7-1.2C683.4,718.2,683.8,718.2,684.1,718.3z"/>
<path style="fill:#9D978B;" d="M607.1,709.2c-5,2.5-11.5,0.7-15.9,5.1c-1.7,0-3.4,0-5.1-0.1c0.7-0.3,1.4-0.7,2-1
	c0.3,0,0.8,0.1,1-0.1c4.6-7,11.8-3.9,18-4.9C607.1,708.6,607.1,708.9,607.1,709.2z"/>
<path style="fill:#967E51;" d="M632,698.2c-3.3,0.5-6.4,0.3-9-2.4c-2.2-2.2-5.2-1.5-7.9-1.5c-1.1-4.1-5-5.4-10.6-3.6
	c-2.2,0.7-4.3,1.9-6.6,2.1c-5.4,0.4-7.5-2.5-6-7.7c2.3-7.5,4.4-15,5.9-22.7c0.8-4,1.9-8.6,1.3-12.4c-0.7-4.1-2.7-8.5-5.4-12.2
	c-1-1.3-1.7-2.7-2.8-4.3c0.1,3.5-1,6.2-2.7,9.1c-1.6,2.6-0.8,6.1-1.8,9.2c-1.7,5-4,9.3-8.1,12.6c-0.8,1.3-3.8,1.7-1.8,4.3
	c0.5,0.7,0,2-0.5,2.8c-1.7,2.7-1.3,5.4,0.1,8c0.1,0.8,0,1.5-0.4,2.3c-3.7,3-5.5,0.2-7.3-2.4c-1.2-1.7-1.1-4.1-2.6-5.7
	c-5-10.4-1.9-21.1-1-31.7c0.2-2.6,1.4-4.9-0.7-7.3c-1.3-1.5-0.5-3.5-0.6-5.3c0-1.5-0.1-3,0.2-4.5c1-2.6,3.3-5,1.5-8.1
	c-0.1-3-2.1-6.2,1-8.8c0.5-0.2,1-0.2,1.5-0.1c0.5,0.2,0.9,0.5,1.2,0.9c1.4,1.9,0.5,4.8,3.7,6c6,2.3,11.5-0.6,12.2-7.2
	c0.3-2.8,0.8-4.5,4.3-3.3c4.3,1.5,5.2-3,7.8-4.7c2.9-1.5,6-2.4,8.4-4.8c1.7-1.7,3.8-1.8,5.5,0.4c1.2,2.1,0.4,4.1-0.4,6
	c-0.7,1.9-2,3.5-3.3,5c-3.4,3.7-4.4,7.5-2,12.2c1,1.9,2.2,5-0.6,6.1c-2.5,1-4-1.8-5.4-3.5c-0.9-1-1-2.4-1.4-4.8
	c0.8,5.4,3.4,7.9,7.2,9.3c2.1,0.8,3.9,1.8,5.1,3.8c0.4,8.7,2.1,17.5-1.5,25.9c-0.7,1.6-0.3,3.3-0.2,4.9c0.2,1.9,0.1,3.9-1.4,5.1
	c-4.8,3.8-2.2,8.1-0.3,11.6c2,3.9,4.2,8.6,10.2,7.9c2.2-0.2,4.1,0.9,6.2,1.4c7.9-3.7,10.1,3.1,13.7,7.9
	C635.3,695.3,631.4,694.3,632,698.2z"/>
<path style="fill:#958F7E;" d="M607.1,539.4c2.8-1.1,4.8-3.2,6.5-5.7c1.8-2.6,4.3-4.4,7.5-5.3c2.9,8.4,5.8,16.9,7.8,25.6
	c1,4.6-1.3,8.8-1.8,13.2c-0.8,6.7,0.4,13.4,0.3,20.2c-0.2,8.6-2.2,16.6-4.5,24.8c-1.6,5.6-1.5,11.5,0.2,17.2c-0.4,2.6-3.1,3.7-4,6
	c-2.3-0.9-2.6-2.8-2.4-4.9c0.3-3.5-0.4-6.9-0.8-10.3c-1-7.6-0.1-14.9,3.8-21.4c2.6-4.5,1.8-9.3,2.5-13.9c0.5-4.1-0.9-7.2-4-10.1
	c-4.8-4.6-4.3-10.7,0.7-15.1c0.5-0.4,1.1-0.8,1.6-1.2c4.5-4.9,2.8-9.3-4.1-10.8c-2.1-1.1-3.9-2.7-6.5-3.2c-1.8-0.3-3.1-1.7-3.4-3.7
	C606.6,540.1,606.8,539.7,607.1,539.4z"/>
<path style="fill:#978A6A;" d="M624.1,584.4c-1,6.6-1.8,13-4.7,19.4c-3,6.6-3.3,14.7-0.7,21.8c1.3,3.5-2.6,6.7,0.4,9.7
	c-6.7,5.7-5.4,13.4-3.4,20.1c1.6,5.4,0.1,8.1-3.6,10.9c-2.9-0.4-2.6-2.8-2.2-4.6c1.3-6.2,0.9-12.5,1.2-18.8c0.2-4.5-1.8-9-2-13.6
	c-6.5-3.2-12.8-6.5-13.5-15.1c6.4,0.1,2.3,9.6,9.7,9.3c-5.5-8.6-4-16.1,3.9-22.2c4.6-4.7,10.7-8.2,12.4-15.4
	C621.7,585,622.6,583.9,624.1,584.4z"/>
<path style="fill:#9E8A63;" d="M609.1,629.3c4.2,10.5,4.6,21.3,2.7,32.3c-0.3,1.6-1.1,3.2,0.3,4.6c0.4,2.9,2.2,5.1,3.9,7.2
	c1.8,2.3,3.2,4.5,3.1,7.5c-0.1,2.8,2.4,3.7,4,5.3c-4-0.6-8.2,2.5-11.9-0.5c-5.1-4.1-7.9-9.8-8.9-16.2c-0.4-2.1-0.3-4.4,2.9-4.8
	c1.6-0.2,2.1-1.7,1.8-3.1c-1.9-6.8,1.9-12.6,2.7-19c0.1-0.8,0.5-1.9,0.2-2.4C607.5,636.8,608.8,633,609.1,629.3z"/>
<path style="fill:#C0AA82;" d="M530.1,457.4c-3.5,3.6-5.8,8-7.9,12.5c-1,2.1-1.7,4.4-4.5,4.7c-0.9,0.1-1.8,1.3-1.2,1.7
	c4.9,3.5,0.2,6.3-0.8,9.1c-1.7,4.5-8.8,8-12.6,7c4.6-4.1,7.6-8.9,9.6-15.1c1.5-4.8,5.4-8.9,7.6-13.7c1.8-3.8,2.9-7.7,2.8-11.9
	c-0.1-5.8,4.1-10.6,3.5-16.8c-0.2-2.6,3.5-1.1,5.4-1.6c0,0.7,0.2,1.5-0.1,2C527.9,442.4,531.1,450.1,530.1,457.4z"/>
<path style="fill:#A38F69;" d="M544.1,448.4c-2.7-1.9-4-5.8-8-6c1.4-3.8,3.3-4.8,6.2-1.3c1.1,1.3,2.7,1.8,4.3,2.3
	c3.2,0.9,6.2,2.2,7.8,5.5c0.6,1.2,1.7,1.6,2.9,1.4c0.9-0.2,1.6-0.9,1.3-1.8c-1.4-4.7-0.8-9.3,0.3-13.9c0.5-0.7,1.2-0.8,2-0.6
	c1.3,0.6,2,1.8,2.1,3.2c0.2,2.8,1.3,4.8,3.1,7c3,3.6,1.6,7.8-2.6,9.5c-1.2,0.5-2.3,1.3-3.6,1.7c-0.8,0.2-1.5,0.2-2.3,0
	c-3.3-1.2-6.6-2.6-10.1-3.7C546.2,451.1,544,451,544.1,448.4z"/>
<path style="fill:#5C5B56;" d="M561.1,434.5c-0.7,0-1.3,0-2,0.1c-0.3-0.1-0.6-0.2-0.9-0.3c-0.2-0.3-0.3-0.5-0.3-0.8
	c0.1-0.3,0.1-0.4,0.2-0.4c0.7-0.8,1.7-0.9,2.6-1.1c3.9-0.4,8.5,0.6,9-5.6c0.1-1,1.5-2.6,3.4-1.9c-0.1,1.7,0.7,3,1.7,4.3
	c1.8,2.1,1.6,4.1-0.8,5.7C568.4,438.8,565.4,438.8,561.1,434.5z"/>
<path style="fill:#83765A;" d="M558.3,433.2c0,0.3,0,0.7,0,1c-1.1-0.2-1.8-0.9-2.3-1.8c-0.1-3.2,3.7-4.8,3.3-8.1
	c2.8,0,3.5,2,3.8,4.2C563.4,432,560.2,432.1,558.3,433.2z"/>
<path style="fill:#1A1C1D;" d="M558.3,433.2c3.5-2.6,4.5-5.5,0.9-8.9c-1.8-7.7,0.7-10,10.8-9.8c2.8,2.8,5.2,5.6,3.2,9.9
	c-1.8,2.6-5.8,4.9-0.3,8.5C567.4,433.9,562.8,433.2,558.3,433.2z"/>
<path style="fill:#9C6F36;" d="M558.1,454.4c0.7,0,1.4,0,2,0c1.6-1,2.9-0.7,4.1,0.6c0.4,0.7,0.4,1.5,0.1,2.2
	c-0.2,0.4-0.5,0.8-0.9,1.2c-1.8,1.5-3.7,0.8-5.7,0.5c-4.5-0.8-6.4,0.4-6,4.9c0.3,3.2,1.9,6.2,5.9,6.5c0.9-0.3,1.8-0.4,2.7,0
	c1.6,2.1,3.2,4.2,3.8,6.7c-0.3-2-2-3.6-2.3-5.8c-0.1-1.1,0-2.1,0.5-3c2.4-3,5.5-4.1,9.3-3.4c2.8,5,7.5,7.9,12.2,10.4
	c0-0.3-0.5-0.7-0.8-1.3c-0.3-0.8-0.6-1.7,0-2.3c1.3-1.5,3-1,4.5-0.4c1.9,1.2,3.7,2.7,6,3.2c1.6,0.3,2.5,1.4,2.5,3.2
	c1.7,2-1,2.9-1.4,4.3c3.4,2,5.5-1.8,8.4-1.4c1.6,0.1,3.2,0.2,3.9,2c-2.7,1-5.3,2.1-8.4,1.8c-3.1-0.3-4.5,3.8-1.7,6.9
	c2.9,3.2,1.8,6.1,0.4,8.5c-1.7,2.7-5.4,0.4-8.1,1.2c-1.2,0.3-2.1-1.4-2.1-2.9c0-1.8,0-3.6,0-5.5c5-6,3.4,2.5,6.1,2.5
	c1.2-5.2-2.5-8.1-5.6-10.9c0.6,2.6,2.1,5.6-0.5,8.4c-1.3-0.7-1.7-1.8-2-3.2c-1.5-6.5-7.3-8.3-12.8-3.9c-1.9-2-0.9-5.2-3.7-7.3
	c2.3,4.5-2.5,6.1-3.1,9.7c-3.3-2.7-3.5-6.9-5.3-10.6c-2.9,2.8-1.5,6.8-4,9.3c-1.5,1.5-2.6,3.8-4.2,0.2c-0.3-0.3-0.6-0.6-0.8-1
	c-0.1-2.6-2.5-3.2-3.9-4.8c-1.1-1.6-2.9-2-4.4-2.9c-1.5-1-2.3-2.4-1.9-4.1c0.4-1.9,1.4-3.3,3.8-2.6c0.4,0.4,0.7,0.9,1.3,1
	c-0.6-0.2-1-0.7-1.4-1.2c-2.6-5.1-1.6-12.7,2.3-16.5C550.7,450.8,554.4,453.7,558.1,454.4z"/>
<path style="fill:#9D875F;" d="M607.1,539.4c0,0.3,0,0.7,0,1c-3.7,3.7-4.6,9.1-7.5,13.3c-5.5-0.1-10.1,1.8-14.1,5.7
	c-1.8,1.7-4.4,1.8-6.5,0.3c-2.2-1.6-3-1.2-4.5,1.1c-2.3,3.3-4.5,7.1-9.3,7.5c-4.2-2.6-4.3-6.8-4.4-11c2-3.8,5.4-6.5,7.7-10
	c0.4-0.2,0.9-0.4,1.3-0.4c0.5,0,0.9,0.2,1.2,0.6c4.2,1.2,8.2,2.8,12.1-1.4c3.4-3.7,7.1-1.3,10.1,1.3c2.7,2.3,3.9,1.1,4.4-1.4
	C598.8,540.5,602.2,538.9,607.1,539.4z"/>
<path style="fill:#8D5E2A;" d="M585.1,522.3c0-0.3,0-0.6,0.1-0.9c3.5-0.5,5,0.9,3.4,3.6c-1.6,2.7-1.5,5.6-2.4,8.4
	c-2.5,5.4-8.1,7.3-12.1,11c-1.9,0.3-2.9,1.7-3.9,3.1l0,0c-0.7,0.6-1.4,0.5-2.2,0.4c-1.3-0.6-1.9-1.6-2.2-3c-0.5-3.1,0.7-5.2,3.9-5.8
	c3.2-0.6,4.6-2.6,5.6-5.6C576.9,528.4,580,524.4,585.1,522.3z"/>
<path style="fill:#9D743D;" d="M586.1,533.3c0.1-3.1-1.8-6.2,1.2-9.2c1.8-1.8-0.3-2.7-2.2-2.7c2-4.5,4-8.9,8.6-11.6
	c2.1-1.2,4.1-0.7,6.1-1.2c1.2-0.3,0.5,2.8,3.1,4.9c-5.7-1.7-8,1-9.1,4.1c-1.3,3.8-3.5,7.1-4.7,10.8
	C588.1,530,587.1,531.7,586.1,533.3z"/>
<path style="fill:#9D743D;" d="M600.1,518.4c-1.1-0.1-2.3,0.4-3.2-0.7c4.8-4,4.9-4,6.2,0.7C602.1,518.3,601.1,518.3,600.1,518.4z"/>
<path style="fill:#A17337;" d="M570.1,547.4c0.1-2.6,0.6-4.6,3.9-3.1c-0.6,1.4-1.7,2.3-2.9,3.1C570.8,547.4,570.5,547.4,570.1,547.4
	z"/>
<path style="fill:#83765A;" d="M564.1,455.5c-1.3-0.4-2.7-0.7-4-1.1c1.2-1.1,2.3-2.9,3.6-3.2c5-1,2.3-5.5,1.7-5.8
	c-4.4-1.9-3.9-5.4-3.8-9c0-0.6-0.3-1.3-0.5-1.9c4.4,2.7,8.7,0.6,13.1,0c-1.3,2.8-0.6,3.8,2.5,2.9c2.4-0.7,3.9-2.4,4.6-4.8
	c0.5-1.6,1-3.2,1.7-4.7c1-2.2,2.7-4.2,5.2-4c2.4,0.2,3.1,2.8,3,4.6c-0.2,5.8,4.2,8.8,6.9,12.9c-3.9,3-1.3,7.4-2,11
	c-0.7,3.5-2.2,6.1-4,8.9c-1.9,0.7-2.3-1.1-3.3-1.9c-0.7-0.7-0.9-1.7-1.2-2.6c-1.2-4.1-5.1-5.7-8.7-3.5c-2.5,1.6-5.2,2.7-8.1,3.5
	C568.5,456.7,565.8,458.8,564.1,455.5z"/>
<path style="fill:#8E6E40;" d="M590,458.4c0.7,1,1.4,1.9,2.1,2.9c4.8-0.8,8.4,3.4,6.2,7.7c-1.2,2.4-2.8,4-0.7,6.6
	c0.1,0.1-1,1.1-1.5,1.7c-2.4-2.7-7.3-1.1-9-5c-1.5-1.8-3-2.7-5.5-1.6c-3.1,1.3-5.4-0.6-7.2-2.9c-1.5-2-1.5-3.8,0.8-5.5
	C579.7,459.1,584.6,457.8,590,458.4z"/>
<path style="fill:#B6A178;" d="M490.1,690.2c-2,0-4,0-6,0c6-3,8.8-7.5,8.2-14.5c-0.3-3.7,1.8-7.3,2-11.2c0.2-7-0.7-14-0.3-21
	c0.4-6.7,0.9-13.2,4.1-19.3c0.2-0.3,0.4-0.6,0.4-0.9c-0.1-8.3,3.9-15.2,7.2-22.4c0.6-1.3,0.1-2.6-0.1-3.9c-1.5-10.7-4-21-10.5-29.9
	c-0.6-0.8-0.7-1.9-1-2.8c0.1-3.4-0.6-5.5-3.9-8c-6.8-5.3-13.4-11.2-16.1-20c3.7-0.5,4.7,3,6.7,4.8c4.7,4.4,8.3,10.2,14.8,12.4
	c1.7,0.6,2.5,2,2.5,3.9c-1.9,6.9,2.4,11.6,6.6,15.5c3.2,3,5.7,6,6.8,10c1.3,4.6,2.2,9.3,1.9,14.2c-0.2,1.3-0.8,2.4-1.4,3.5
	c-0.7,1.5-0.3,2.9,0,4.4c0.8,3.8,0.9,7.2-3.7,9c-2.2,0.9-2.8,3.5-2.4,5.5c0.5,2.6-0.6,4.3-1.7,6.4c-2.3,4.4-4,9-3.1,14.2
	c0.2,1,0.4,2,0,3c-2.1,5.6-1.5,11.4-1.4,17.2c0.2,7.5-2,14.7-2.8,22.1C496.6,686.6,493.6,688.7,490.1,690.2z"/>
<path style="fill:#896336;" d="M481.2,700.2c0-0.2,0-0.3,0-0.5c0.3-2-0.9-4.2,1.2-5.8c0.2-0.1,1,0.2,1.2,0.5c1.4,2.4,0.1,4.3-1.5,6
	C481.8,700.4,481.5,700.3,481.2,700.2z"/>
<path style="fill:#937644;" d="M567.1,673.3c2.7,1.4,1.8,4.7,3.7,6.7c1.3,1.3,2.1,3.2,4.3,1.3c2.7-0.1,3.1,2.1,3.6,3.9
	c1.4,4.3,1.4,8.7,0.3,13.1c-2,0-3.9-0.1-5.9-0.1c-5.8-1.2-11.2-3.5-16.7-5.5c-3-1.1-5.7,0.5-8.5,1.5c-1,0.4-1.9,0.8-2.9,1.3
	c-5.7-0.1-11.3-0.2-17-0.4c-0.2-1,0.4-1.5,1-2.1c3.7-3.7,3.7-3.7-1-5.9c-2.8-1.3-2.3-3.4-1.2-5.4c1.8-3.1,3-6.6,5.5-9.3
	c-1.6-1.8-3-0.7-4.3-0.3c-1.9,0.6-4.1,1.8-5.4-0.4c-1.4-2.2-0.8-4.8,1-6.4c2.7-2.4,2.4-5.2,2.4-8.2c0-1.7-0.5-3.1-1.6-4.5
	c-3.9-4.9-3.6-10.3,0.6-15.3c2.8-1.4,3.6-2.8,3.4-6.7c-0.3-5.8,3.3-11.6,5.7-17.1c1-2.3,3.5-1.8,4,1.1c0.7,3.5,0.4,6.9-0.6,10.3
	c-0.4,1.5-1.3,3-0.5,5c1.8-2,0.7-5.5,4-6c2.7,0.6,2.3-1.7,2.8-3.1c0.6-1.6,1.4-3.2,3.4-3c1.9,0.2,1.9,2,2.2,3.4
	c0.4,1.5,0.9,3.2-0.1,4.3c-2.9,3-2,6.7-2.4,10.3c-0.3,2.3,0.3,4.1,1.6,6c3.4,4.9,3.4,6.5-0.4,11c-2.9,3.4-4.4,6.9-4.2,11.7
	c0.2,4.1-1.4,8.4-3.6,12.1c2.2-4.3,3.7-8.9,3.6-13.9c0-1.9,0-3.7,1.1-5.2c0.9-1.3,2-2.3,3.7-2c1.9,0.3,2.1,1.9,2,3.5
	c0,3.4,1.2,6.4,3,9.3c0.1,0.5,0.1,0.9,0,1.4c-0.3,4.6,1.4,9.1,0.4,13.7c1.2-3.3,2.7-6.4,2-10c-1.5-4.7-0.7-9.5-0.5-14.3
	c0.7-1.7,2-2.9,3.9-2.1c1.8,0.7,2.1,2.5,2.1,4.2C561.9,666,563.1,670.2,567.1,673.3z"/>
<path style="fill:#886939;" d="M579.1,698.3c-1.1-1.8-1.9-3.4-1.4-5.9c0.8-3.9-0.6-7.7-2.6-11.2c0-0.7,0-1.3,0-2c-1.2-2-1.6-4.2,0-6
	c2.6-2.7,2.6-5.8,2.1-9.1c0.1-2.2-0.6-5.1,3.4-4.4c0.9,0.2,2.1-0.3,1.9-1.1c-1-5.5,5.6-9.4,3-15.1c-0.2-0.5-0.1-1.7,0.2-1.9
	c4.5-2.4,3.2-6.7,3.5-10.5c0.1-1.1-0.1-2.6,1.6-2.6c1.3,0,1.1,1.4,1.5,2.2c3,6,6,12,9.1,18c1.1,2,4.1,4.2-1.1,4.9
	c-1.1,0.1-1.1,1.2-0.8,2c2.8,7.6-2.2,14-3.5,20.9c-0.7,3.8-0.6,7.9-3.4,11.3c-1,1.2,0.6,2.4,1.9,2.8c2.1,0.7,4.2,0.6,6.2-0.6
	c4.4-2.8,9.6-2.2,14.2-1.6c6.2,0.8,0.5,3.7,0.2,5.7c0,0,0,0,0,0c-2.3,1.6-5.1,1.6-7.6,2.4c-1.1-0.3-1.8-1.9-3.3-1.1
	c-5,3.1-10.9,0.2-16,2.4C585.2,700.8,582.2,700.3,579.1,698.3z"/>
<path style="fill:#A79C8B;" d="M548,694.2c1.5-2.8,5.4-2.4,6.8-5.3c0.1-0.2,0.8-0.3,0.9-0.3c4.3,6.1,12.7,4.5,17.5,9.5
	c-3.7,1.5-8.2-0.9-11.6,2.6c-1,1-2.4,0-2.7-1.2C557.2,693.7,552.6,694,548,694.2z"/>
<path style="fill:#967E51;" d="M588.1,698.1c4.6-4.3,10.9-1.5,16-3.8c1.2,1.2,0.8,2.4,0,3.5c-0.3,0.3-0.7,0.5-1.1,0.6
	C597.9,701.3,593.1,697.7,588.1,698.1z"/>
<path style="fill:#967E51;" d="M607,696.2c2.4-1.9,5.2-2.3,8.1-1.9c-3.4,3.3-7.2,5.4-12.2,4.2c0.2-0.2,0.3-0.3,0.5-0.5
	C604.6,697.3,605.3,695.7,607,696.2z"/>
<path style="fill:#A18D67;" d="M497.1,557.4c-0.1-1-0.3-2.3-1.5-2.3c-4.4,0.1-6.1-3.5-9-5.7c-5.1-3.7-7.8-9.3-12.5-13.1
	c0.7-4.2-1.2-7.2-4.3-9.8c-3.7-3.1-6.3-7.1-8.7-11.2c2-0.2,3.4,1.1,5,2c1.5-1.5,4.1-1.1,5.2-3.2c0.5-0.9,1.3-1.7,2.4-1.1
	c1.5,0.8,1.2,2.1,0.4,3.3l0,0c-1.1,7.7,0.1,9.4,6,8l0,0c0.7-0.9,1.5-2,2.8-1.1c1.4,1.1,0.8,2.6,0.4,4c-0.3,0.8-0.8,1.4-1.5,1.9
	c-3.3,2.1-2.7,4.3-0.3,6.8c3.8,4,7.5,8,12.7,10.1c2.2,0.9,3.5,2.6,3.9,4.8c0.5,2.1,1.5,3.3,3.7,3.2c1.3,0.2,2.4,0.6,2.8,1.9
	c-1.3,3.3-3.7,6.3-1.5,10.1c0.4,0.8-0.1,1.9-1.1,2.5C497.7,566,495.9,562.3,497.1,557.4z"/>
<path style="fill:#A17337;" d="M585.1,522.3c-2.7,4.2-7.9,7-8.5,12.3c-0.5,4.4-3.3,5.9-6.5,6.1c-3.1,0.2-3.1,1.5-3,3.6
	c-0.7,0.9-1.1,2.4-2.5,2.1c-1.6-0.2-1.9-1.7-2.1-3c-0.3-1.8-0.1-3.6-0.3-5.5c-0.2-1.4,0.2-3.4-1.6-3.8c-1.6-0.4-1.9,1.5-2.6,2.6
	c-1.2,2-2.2,4.1-4.8,4.7c-2.1,1.2-3,2.7-2.8,5.3c0.3,2.9-0.8,5.6-2.8,7.7c-2.6,4-3.8,8.5-4.1,13.2c-4.8,0.3-7.9,3.2-10.8,6.8
	c-1.8,2.3-5.1,3-7.8,4.3c-1.3,0.6-2.7,0.4-3.6-0.9c-1-1.4-0.3-2.6,0.6-3.6c2-2.3,4.7-3.7,7.1-5.5c4.5-3.4,8.4-7.2,7.6-13.6
	c-0.3-2.2,1.9-3.1,2.4-4c-4.1,2.5-6.3,6.9-8.5,11.9c-3.4,8-12.2,11.2-20.6,8.5c-4.1-1.3-6.7-5-8.4-8.8c-1-2.2,0.7-4.3,3.1-4.8
	c1.8-0.4,3.6-0.5,5.4-0.6c4.2,1.4,2.5,5.2,3.1,8c4.1-0.6,7.9-1.6,9.8-5.8c4.4-1.1,3.8-5.2,4.5-8.1c1.6-6,4-11.9,2.7-18.4
	c-0.4-1.8-0.9-3.5-1.5-5.3c3.4-5.9,0.2-10.1-3.6-14.2c-0.6-0.6-1-1.3-1-2.2c-1.7-4.1-7-4.2-8.9-8c3.1-0.8,5.9-0.8,7.7,2.4
	c1,1.7,2.5,1.8,3.7,0.5c2.8-3.1,5.9-1,7.5,0.6c2.7,2.6,6.1,4,8.7,6.6c2.2,2.2,3.7,2.2,5.3-0.7c1.4-2.4,2.1-4.7,2.2-7.5
	c0.1-2,0.5-4.8,3.6-4.3c2.7,0.5,1.9,2.7,1.7,4.8c-0.4,3.6-0.4,7.3-0.6,10.8c1,0.3,1.1-0.3,1.1-0.7c-0.2-2.7,0.4-5.7,3.4-5.6
	c2.5,0,2.6,3.3,2.5,5.2c-0.1,3.2,2.4,5,3.4,7.6c0.3,0.6,0.9,1.1,1.6,0.7c0.3-0.2,0.7-0.9,0.6-1.1c-2.4-6.1,4.6-7.2,6.1-11.2
	c0.5-1.3,2.6-2.1,2.4-4c0-0.2,0.1-0.3,0.1-0.5c4.6,1.3,5.9-6.3,11.4-4c-2.9,2.6-3.6,6-5.6,9c1.3,0.7,5.4-1.4,2.6,2.7
	C583,517.1,581.4,520,585.1,522.3z"/>
<path style="fill:#AD874D;" d="M552.1,485.4c0,0.3,0,0.7,0,1c-1.5,1.7-5.6,2.4-2,5.9c0.9,0.9-0.2,1.8-0.9,2.5
	c-1.5,1.4-2.1,2.3,0,4.2c2.4,2.1-0.5,4.2-1.6,6c-1.1,1.8-2.6,3.8-5,3.6c-1.7-0.2-1.2-1.6-0.4-2.7c1.4-1.8,3.6-3,3.4-5.7
	c-1.8-0.7-2.5,0.8-3.3,1.6c-2.5,2.7-4.6,0.8-6.5-0.7c-2.3-1.8-0.4-3.3,0.7-4.6c1.9-2.2,2.9-4.6,2.7-7.6c-2.6,2.5-3.4,6.1-6.3,8.3
	c-2.5,1.9-4.3,3.5-5.8-0.9c-0.9-2.6-2.1-2.1-3,0.2c-0.9,2.4-2.5,2.9-4.7,1.9c-3.6-1.4-7.4-1.6-11.2-2.1c3.3-1.9,6.9-2.1,10.6-1.9
	c3.5,0.2,6-2.3,4.7-5.4c-0.9-2.2,0.1-3,1-4.3c3.1-4.3,2.9-6.2-1.7-9.9c5,0.4,5.7-3.5,7.2-6.3c1.3-2.5,2.7-4.2,6-4.3
	c3-0.2,5.1-1.5,2.5-5.2c-1.9-2.8,1.6-9,5.7-10.6c4.7,1.8,9.8,2.8,14,6c-3.9,0.5-9-2.7-11.1,3c-1.4,3.8-3.8,7.8-1.2,12.1
	c0.2,0.4-0.4,1.2-0.6,1.8l0,0c-1.9,0.2-3.1,1.3-2.8,3.3c0.3,1.7,1.7,2.6,3.3,2.2c3.6-0.8,2.8,1.5,2.5,3.4
	C548.5,482.8,552,482.8,552.1,485.4z"/>
<path style="fill:#855B29;" d="M524.1,511.4c1.4,0.8,2.7,1.9,4.4,2.1c1.4,0.2,2.3,0.7,1.8,2.7c-0.9,3.4-0.8,3.5,3.3,3
	c-1.5,2.8,0.3,7.1-4.4,8.1c-0.1,0.2-0.1,0.4-0.2,0.7c-3.6,3.1-3.6,3.1-7-3.6c1.3,3.4,0.5,6.6-1,9.6c-1.9,3.7-3.7,7.2-3.7,11.6
	c0,3.5-4,4.5-6.1,6.8c-0.5,0.2-0.9,0.2-1.4,0.1c-3.7-2.3-6.1-5.3-5.6-9.9c0-0.3,0.3-0.6,0.4-0.9c-0.4,0.3-0.9,0.4-1.4,0.4
	c-3-0.5-5.6-0.9-3.9-5.3c0.9-2.4-1.6-3.3-3.6-3.4c-3.6-0.3-6.2-2.3-8.7-4.4c-2.2-1.9-3.3-4.2-0.7-6.8c3.3,5.3,4.9,5.3,8.3-0.2
	c2.4-3.9,7.4-6.7,5.7-12.6c-0.5-1.6-0.4-3.3-2.1-4.2c1.4-2.3,2.7-2,4,0.1c1,1.6,1,3.5,1,5.3c0.1,2.4,1.3,4.1,3.7,4.5
	c2.7,0.4,4.4-1,5.4-3.4c0.6-1.4-0.6-3.7,1.7-4.2c2.2-0.5,4.3,1.1,5,2.5C520.5,513.2,522.2,511.9,524.1,511.4z"/>
<path style="fill:#89683B;" d="M486.2,522.4c0.1,5.2,4.3,9.2,9.9,9.1c2.5-0.1,3.4,1.4,4.7,2.9c1.7,1.9,1.5,2.8-0.7,3.9
	c-0.9,0.5-0.6,1.7,0.4,1.8c1.5,0.2,3.1,1.9,4.5-0.1c0.7-1,1.1-3,2.7-1.4c1.1,1.1-0.3,2.2-1.2,3.3c-1.2,1.6-4.4,4.1,1.1,3.9
	c0.8,0,1.4,0.7,0.9,1.2c-2.8,2.8,1,3.6,1.6,5.3c-0.7,2.3-2.9,3.3-4.3,4.9c-0.8,0.2-1.9,0.8-1.7-0.9c-0.7-1-1.9-1-2.9-1
	c-0.3-0.2-0.7-0.4-0.8-0.6c-2-10.7-12.4-13.6-18.9-20c-3.4-3.3-1.4-5,0.6-7.3c-0.8-0.9,2.6-4.7-2-3.1c0.7-1.8,1.4-3.7,2.1-5.5
	c0.7-1.9,2.3-3.4,4.1-2.8c2.4,0.9,1.4,2.8,0.3,4.4C486.2,520.9,486.3,521.7,486.2,522.4z"/>
<path style="fill:#2B2820;" d="M462.3,507.4c-0.4-0.4-0.8-0.8-1.2-1.2c-0.3-3.4,0-6.4,4.2-7.1c0.3,0,0.8-0.4,0.8-0.6
	c0.1-6.4,5.7-4.7,8.8-5c3.7-0.4,8.1-2.2,11.8,1.1c1.1,0.9,3.1,0.8,4.6,1.2c-0.1,2-1.6,1.5-2.6,1.5c-8.3,0-15.4,2.4-20.8,9
	C466.5,508.2,464.2,507.2,462.3,507.4z"/>
<path style="fill:#83653D;" d="M474.1,516.3c-0.3-1,0.1-3.8-1.9-1.2c-1.7,2.2-3.4,3.2-6,2.2c0.4-3.8-3.9-5.4-3.9-9
	c2.9-0.4,4.8,1.5,5.7,3.6c1.1,2.6,2.1,2,3.5,0.6c2.3-2.3,4.6-4.6,7-6.9c0.8-0.8,1.9-1.7,3-0.7c1.3,1.2-0.2,1.9-0.9,2.8
	C478.3,510.6,476.2,513.5,474.1,516.3z"/>
<path style="fill:#83653D;" d="M480.1,524.3c-2.3,2.5-4.5,2.5-7.3,0.3c-3-2.4-1.2-4.1,0.1-6.2c0.4-0.7,0.8-1.4,1.2-2.1
	C475.2,519.7,475.1,523.9,480.1,524.3z"/>
<path style="fill:#2D271E;" d="M479.9,475c2.5,1.7,4.1,3.6,2.8,6.5c-0.4,1-1.8,1.1-2.6,0.5C477.4,479.9,478.3,477.6,479.9,475z"/>
<path style="fill:#2B271F;" d="M463.1,480.2c1.2-0.4,2.5-1.1,3.5,0.5c0.8,1.4,0.7,2.9,0.3,4.3c-0.2,0.7-0.7,1.1-1.5,1
	c-0.9-0.1-1.7-0.5-1.9-1.3c-0.3-1.4-0.4-2.9-0.5-4.4C463,480.4,463.1,480.2,463.1,480.2z"/>
<path style="fill:#363127;" d="M457,491.6c-2.3-2.1-2.8-4.2,0.1-6.2c0.3,0.4,0.7,0.7,1,1.1C460.3,488.8,459.7,490.4,457,491.6z"/>
<path style="fill:#876533;" d="M526.1,638.3c-3.4,3.4-2.4,7.6-1.9,11.6c0.1,0.8,0.5,1.6,1.6,1.4c0.5-0.1,1.1-0.4,1.4-0.2
	c1.4,0.8,1.2,14.5-0.2,14.6c-4.1,0.2-2.5,3.5-3.8,5.5c2.3,0.4,3.5-0.2,5.1-1.5c2.1-1.9,4.8-0.7,6.5,1.1c2.1,2.3-0.4,3.2-1.9,4.5
	c-2.7,2.4-3,6.3-5.5,9c-0.8,0.9,0.6,2.3,1.9,1.4c2.3-1.5,4-1.1,4.4,1.5c0.5,2.6,0.3,5.4-2.5,6.9c-1,0.5-2.2,0.7-3.3,1
	c-1.6,0.1-3.3,0.2-4.9,0.3c-4.9-4.4-5.2-10.2-5.2-16.1c-1.6-2.9-2.7-5.8-3.3-9.1c-0.7-3.7-3.7-6.8-4.2-10.7
	c-0.2-1.1-0.8-2.2-0.8-3.4c0-1.6,0.8-2.9,1.5-4.2c3.5-3,5-7.2,7-11.1c1-2,2.1-4.1,3.9-5.6c1.5-1.3,3.2-1.9,4.6,0.3
	C527.1,636.5,526.8,637.4,526.1,638.3z"/>
<path style="fill:#997C4C;" d="M511.1,656.3c0.6,2.7,3.7,4.8,2.2,8.1c-0.1,0.2,0.2,0.9,0.3,0.9c6.8,0.1,2,6.3,2.8,6.7
	c4.2,2,1.1,5,1.7,7.3c-2.5,1.4-1.8,3.4-1.3,5.7c0.7,3.1,0.4,4.8-3.9,4.5c-4.4-0.3-9.3-0.8-13.4,2c-1.6,1.1-3.5,0.8-5.3,0.8
	c3.6-2.5,7.1-5,10-8.4c2.5-3,4.5-6,5-9.9c0.3-2.3,0.8-4.6-2.3-5.6c-2.5-0.8-1.4-2.5-0.7-4c1.1-1.3,0.8-3,1.3-4.5
	C508,657.9,508.6,656.1,511.1,656.3z"/>
<path style="fill:#9D8251;" d="M511.1,656.3c-2.7,2-2.1,6.1-5,8c-0.7-4.3-1.3-8.7-2-13c-3.5-5-0.4-10,0.3-14.8
	c0.9-5.6,3.8-10.6,6.6-15.6c1.5-2.6,3.8-3.5,6.4-4.3c-1.6-6.6,0.5-13.8-4.1-19.6c2.3-3,2.3-7.7,6.7-9.3c3.5,0.7,3.3,4,4.4,6.4
	c1.1,2.1,2.9,2.6,3.1-0.1c0.3-5.1,4.1-7.3,7-10.4c1.1-1.2,2.8-2.4,4.4-1.4c1.9,1.1,1.4,3.1,1.2,5c-0.1,1-0.6,1.9-1.2,2.7
	c-1.7,2.2-1.5,3.8,1.4,4.9c2.8,1.1,2.6,3.1,1.1,5.2c-0.7,0.9-1.8,1.7-1.9,2.9c-0.3,2.3-1.4,5.1,2.6,5.5c1.4,0.1,2.5,0.9,3,2.3
	c0.9,4-1.1,7.7-1.1,11.7c0,1.4-1.1,2.4-2.8,1.9c-1.3,1.5-1.5,3.3-1.4,5.1c0,1.1,2,2.4,0,3.3c-1.9,0.8-3.4-0.9-5.1-1.5
	c-1.7-0.6-0.7-1.8-0.2-2.8c2.5-4.8,2.9-9.9,1.9-15.7c-1.1,1.6-2.7,3-2.5,4c0.8,4.5,0.1,8.1-3.9,10.7c-0.8,0.5-1,2.1-0.3,2.8
	c5.3,5.4,0.9,6.7-3.4,8.1c0-1,0-2,0-3c-1.1-2.3-2.3-4.6-5.4-4c-5.1,1-8.8,3.8-9.6,9.4c0.6,0.2,0.5-0.4,0.7-0.7
	c0.9-1.6,1-4.6,3.7-3.6c2.7,1,2.3,3.7,1.6,6c-1.2,4-3.6,7.2-7.7,9.5c1.3-0.2,2.1-0.3,2.8,0.3C511.8,653.6,511.5,655,511.1,656.3z"/>
<path style="fill:#AA9871;" d="M490.1,690.2c5.1-4.4,6-10.2,6.1-16.6c0.2-5.4,2.3-10.5,2-16c-0.1-1.6,0.7-3.2-0.8-4.5
	c-1.4-1.3-1.1-2.6,0.2-3.9c2-2.1,2.3-5.1,2.1-7.5c-0.7-6.8,0.6-12.8,4.5-18.2c0.9-1.3,0.4-2.5,0.3-3.8c-0.3-2.8,0.3-5.8,2.9-6.8
	c4.7-1.9,3.9-5,2.9-8.5c-0.4-1.6-2-3.3-0.2-5.1c4.4,2.7,6.7,11,3.1,14.5c-4.6,4.5-5.3,10.4-7.3,15.9c-2.6,6.9-3.5,14.2-2.8,21.6
	c-3.4-0.1-2.4,2.6-1.9,3.8c3.6,7.1,0.8,14.3,0.7,21.4C502,683.7,496.4,689.7,490.1,690.2z"/>
<path style="fill:#A99263;" d="M503.1,651.3c-3.9-9.7-0.8-18.6,3-27.4c0.6-1.4,1-2.7,1-4.2c0-1.3-0.1-3,1.1-3.7
	c8-4.7,4.4-10.7,1.9-16.6c0.7-0.7,1.3-1.3,2-2c0.7-0.6,1.3-0.6,2,0c0.2,1.2,0.8,1.8,2,1.5c0.9-0.2,2.3,0.2,2.1,0.6
	c-2.2,3.5,3.7,6.9,0,10.3c1.2,0.9-3.9,5,1.9,3.6c1.2-0.3,1.1,1.3,0.8,1.8c-1.1,1.6-1.3,5-4,4.1c-3.1-1.1-3.2,0.8-4.2,2.5
	c-5.5,9.1-8.6,18.9-8.6,29.6C503.8,651.3,503.5,651.3,503.1,651.3z"/>
<path style="fill:#885F2E;" d="M562.1,556.3c0.6,3.9,1,7.9,4,11c0.8,0.6,1.6,1.2,2.5,1.6c0.6,0.3,1.1,0.7,1.6,1.1
	c2.4,2.1,3.9,4.7,4.2,7.9c0,1.7,0.6,3.3,1,4.9c0.4,1.7,0.6,2.8,3.2,2.4c3.8-0.6,8.9,4.1,9.3,8.1c-2.6,2.7-4.7,5.5-3.5,9.6
	c0.4,1.3-0.2,2.6-1,3.8c-0.7,1-1.5,1.8-2.8,1.7c-1.6-0.1-2.3-1.3-2.5-2.7c-0.5-2.3,0.1-4.7-0.8-7.2c-0.9,2.8-1.3,5.5-2.8,7.8
	c-1.4,2.2-3,4.6-6.3,2.9c0-0.3,0-0.7,0-1c-0.6-3.4,1.7-6.9-0.1-9.6c1.1,2.8,0.7,6.2-0.9,9.5c-2.4,3,0.7,6,0,9c-1.1,2.2-0.5,4.9-2,7
	c0,1.7,0,3.3,0,5c-0.8,1.1-1.2,4.1-2.9,0.6c-0.8-1.8-1.1-3.8-1-5.8c0.3-6.1,0.2-12.1,0.5-18.2c-0.2,1.3,0.4,2.5,0.1,3.7
	c-1.7,6.8-0.7,13.6,0.2,20.4c0.1,0.9-0.1,1.6-0.8,2.3c-0.9,0.6-2-0.2-2.9,0.3c-1.2,0.2-2.7,0.2-2.9-1.1c-0.5-2.9-1.6-4.3-4.8-4.9
	c-2.2-0.4-1-3.1,0.1-4c3.2-2.6,3.3-5,1.2-8.5c-1.4-2.5-0.7-5.8-1.4-8.7c-0.3-3.4,1.2-6.8-1-10.4c-1-1.6-0.2-4.8,0.7-7.2
	c2.3-6.5,1.8-13.4,3.1-20.1c0.3-1.3-1-2.5-1-3.8c0.3-2,1.5-2.5,3.3-2.1c1.7,1,1.6,2.3,1,3.7c2.2-2.5-0.2-5.1-0.2-7.7
	c0.1-5,1.2-5.8,6-4C563,554.7,562.7,555.5,562.1,556.3z"/>
<path style="fill:#877E67;" d="M624.1,584.4c-0.7,1.5-1.6,2.9-1.9,4.4c-1.7,7-6.9,10.2-13,12.5c0.3-2,0.7-4,1-6
	c-0.9-2.6,1.1-3.9,2.5-5.5c1.3-1.5,2.9-2.7,3.7-4.6c0.8-1.9,1.3-3.7-0.3-5.6c-1.6-1.9-3.4-1.8-5.4-0.9c-2,1-4.1,1.2-6.3,0.8
	c-2.7-2.4-4.7-5.7-8.7-6.6c-1.8-0.4-2-2.8-1.1-4.3c2.2-3.5,4-7.2,6.9-10.3c1.9-2,4.6-1.4,7-2.2c9-0.4,9-0.4,7.3-9.4
	c0.1-0.2,0.3-0.4,0.4-0.6c3.4,0.2,7.7-0.6,8.5,4c0.8,4.4-0.6,8.4-5,10.9c-3.9,2.2-4.3,8.9-0.7,11.7
	C622.9,575.9,625,579.4,624.1,584.4z"/>
<path style="fill:#8B6B39;" d="M560.1,632.3c1.5-1.4,0.6-2.7-0.3-3.9c-1.3-1.8-1.7-3.5-0.2-5.4c0.5-0.7,1-2.2,0.6-2.8
	c-4.5-7.2,2.1-13.3,1.4-20.1c2.4,6.4,1.7,12.8,1.3,19.2c-0.2,3.3,0,6.6,0.2,9.8c0.2,2.1,1.2,0.4,1.9,0.2c0.7,2.1-1.8,5.6,3,5.9
	c1.6,0.1,0.6,2,0.2,2.9c-2.7,6.4-3.6,12.9-2.2,19.8c0.1,0.3,0.1,0.7,0,1c-1.9,4.9-1.8,9.7,1,14.4c-0.2,0.8-0.2,1.9-0.7,2.2
	c-1.1,0.7-1.8-0.4-2.1-1.3c-1.5-4.6-5.4-8.4-4.3-13.8c0.4-2-0.5-3.3-2.8-2c-2.6-2.1-2.6-5.1-1.8-7.7c1.6-4.7,2.5-9.4,2.3-14.4
	C557.7,634.6,558.5,633.1,560.1,632.3z"/>
<path style="fill:#8B6B39;" d="M568.1,609.3c3.8-0.7,5.3-3.6,6.1-6.9c0.7-2.7,1.5-5.4,2.4-8.7c2.6,3.5,3.9,6.7,3,10.7
	c-0.3,1.1-0.7,2.6,0.7,3c1.8,0.5,2-1.4,2.4-2.5c0.3-0.9,0.5-2.1,0.1-2.9c-2.5-4.9,0.6-6.9,4.3-8.6c0.7,0.3,1.1,0.9,1.4,1.6
	c0.2,1.1,0.3,2.3,1,3.8c0.9-2.5,2.5-4.2,3.5-6.2c2.8-3.4,6-3.2,9.3-0.8c1.3,2,0,3.3-1.3,4.6c-1.3,1.2-2.4,2.7-3.7,4
	c0.2,3.8-3.3,5.2-5.4,7.2c-1.8,1.7-2.8-2.1-5.4-2.7c1.6,4.1,0,6.6-2.7,9.6c-2.5,2.8-5.4,3.9-8.4,4.7c-0.8,0.2-2.7-1.8-4.9-2.2
	C568.2,616.4,567.8,612.2,568.1,609.3z"/>
<path style="fill:#7C6D4F;" d="M597.1,600.3c-1.3-4.5,3.6-5.1,5-8c-0.2-5.4,2.7-8.8,7-11.5c-1.5-0.2-3,0-4.1-1.2
	c-0.3-0.5-0.2-0.9,0.1-1.3c1.5-0.3,3.1-0.1,4.4-0.8c4.1-2.2,7.6-1,9.5,2.5c1.7,3.1-0.5,6.2-2.7,8.7c-2,2.3-4.1,4.4-6.1,6.5
	c-1.4-0.8-2.8-1-3.8,0.7C604.3,599.7,601,600.6,597.1,600.3z"/>
<path style="fill:#937644;" d="M577.2,664.3c3,3.2,3.3,6.3-0.3,9.2c-2.1,1.6-1.6,3.8-1.7,5.9c-2.1-1.2-2.4-3.2-1.7-5.1
	c1.4-3.5,2.7-6.9-0.7-9.9C574.5,662.3,575.6,666.2,577.2,664.3z"/>
<path style="fill:#8B6B39;" d="M567.1,608.3c0.5-5.3-1.4-10.8,1-16.1c1.1,5.3,3.2,10.7,0,16.1C567.8,608.3,567.4,608.3,567.1,608.3z
	"/>
<path style="fill:#8B6B39;" d="M578.3,619.7c1.4,4,2.3,7.7,1.4,11.7C574.7,628.7,574.5,627.5,578.3,619.7z"/>
<path style="fill:#614522;" d="M631.1,693.2c-0.3,1.4,0.8,3.6-1.8,3.8c-0.9,0.1-2.4-1.1-1.6-1.8c2-1.5-1.2-4.9,1.8-5.3
	C631.9,689.6,630.7,692,631.1,693.2z"/>
<path style="fill:#8B6B39;" d="M565.1,624.3c0.7-2.3-2-5.6,2-7C568.4,620.2,567.4,622.5,565.1,624.3z"/>
<path style="fill:#877E67;" d="M599.1,553.4c1-2.9,1.1-5.9,2.6-8.8c1.3-2.5,2.8-3.8,5.4-4.2c1.4,1.5,2.4,3.4,5.3,2.6
	c2.1-0.6,2.6,2.1,3.8,3.3c0,0-0.1,0.1-0.1,0.1c-3.3,5.8-3.3,5.8-8.9,4.3c-2.1,0.2-2,2.5-3.3,3.3
	C602.1,555.1,600.3,556.6,599.1,553.4z"/>
<path style="fill:#775730;" d="M590,458.4c-2.9,2.9-7.2,1.2-10.6,3.3c-1.5,0.9-1.4,5.6-5.3,2.7c2.4,2.5,2.6,7.4,8,4
	c2.7-1.7,3.6,2.2,4.9,4c-0.9-0.2-2.1-0.9-2.8-0.6c-1,0.5,0.2,1.4,0.4,2.1c0.5,1.5,0.3,3.4,3.1,3.4c-4.7,3.4-5.2-2.2-8.2-2.8
	c-3.6-0.7-8.7-3.1-7.7-9.1c-1.5-1.3-3.1-2.3-3.7-4.4c-0.8-2.7-0.4-4.8,2.8-5.6c2.6-2,5.8-2.8,8.5-5c3.5-2.9,6.1,1.9,9.2,2.8
	c3.2,1-0.1,2.4,0,3.6C588.9,457.5,589.6,458,590,458.4z"/>
<path style="fill:#A58149;" d="M587.1,492.4c-0.4-4.1-0.8-8.1-1.3-13.4c1.3,2.2,4.8,0.6,3.6,4.2c-0.1,0.4,0.2,1.3,0.3,1.3
	c6.8,0,3.5,6.5,5.9,9.3c0.8,0.9,0.9,2.8-0.2,3.7c-1.3,1-2.9-0.1-4.2-0.4c-1.5-0.3-2.3-1.6-1.7-3
	C590.9,490.2,588.5,492.1,587.1,492.4C587.1,492.4,587.1,492.4,587.1,492.4z"/>
<path style="fill:#744415;" d="M563.2,468.4c0,1,0,2,0,3c-1.4,0.8-2.1-0.4-3.1-1c-0.7,0.4-1.3,0.7-2,1.1c-2.9-1.6-3.9-4.8-6-7.1
	c-1.2-1.3-0.2-3.2,0.7-4.5c1.4-2,3.6-2.4,5.7-1.7c1.7,0.5,3.3,1.8,4.5-0.7l0,0c2.9-1,3,1,2.9,2.8
	C565.8,463.2,564.7,465.9,563.2,468.4z"/>
<path style="fill:#8D602C;" d="M563.1,457.4c-0.6,2.1-0.8,4.5-4.1,1.9c-2.4-2-4.3,0.6-5.7,2.2c-1.4,1.5,0,3.2,1.2,3.6
	c3.5,1,3.8,3.4,3.6,6.4c-1.5,2-3,3-4.1-0.4c-0.2-0.7-0.6-1.6-1.2-2.1c-1.4-1-3.5-1-3.1-3.7c0.4-2.9,0.9-5.7,2.5-8.2
	c1.1-1.7,2.2-1.3,3.8-0.6C558.2,457.7,560.6,458.7,563.1,457.4z"/>
<path style="fill:#8D602C;" d="M563.2,468.4c-0.3-2.3-0.6-4.4,0.7-6.6c0.6-1,2.4-3.5-0.8-4.4c0.3-0.6,0.7-1.3,1-1.9
	c2.3,1.4,4.7-0.5,7,0c-4.3,3.8,0.8,6.6,1,10C569,466.2,565.9,466.7,563.2,468.4z"/>
<path style="fill:#8D602C;" d="M560.1,470.4c1.5-1,2,0.9,3.1,1c2.8,3.5,3.6,7.1,0.6,11.3C564.2,478,560.8,474.7,560.1,470.4z"/>
<path style="fill:#A58149;" d="M552.1,485.4c-1.5-1.5-6.4-0.4-4-5C551.3,480.6,553.4,481.6,552.1,485.4z"/>
<path style="fill:#8D602C;" d="M545.1,471.4c2,0,3.9-1.9,6.4-0.1C549.2,472.5,547.3,475.5,545.1,471.4
	C545.1,471.4,545.1,471.4,545.1,471.4z"/>
<path style="fill:#887754;" d="M599.1,553.4c3,1.9,4-0.3,4.9-2.5c0.6-1.5,0.3-3.9,3.1-2.6c-0.2,3.2,1.3,6.1,2,9.1
	c-7.9,0-8.8,7.8-13.1,11.8c-1.4,1.4-0.7,3.2,1.4,3c4.5-0.5,6.7,1.4,6.8,5.8c0,0.1,0.6,0.2,0.9,0.3c0,0.3,0,0.6,0,0.9
	c-3.5,6.4-16.4,9.3-23.5,5.1c-2.9-1.7-5.8-3.7-8.3-6.1c-1.4-2.6-2.8-5.3-4.1-7.9c0.1-1.4,1.2-2.1,1.9-2.7c-0.8,1.1-2.4,1.6-3.7,2.6
	c-1.1-0.7-1-1.8-1.1-2.9c3-2.9,6.9-4.8,7.7-9.6c0.4-2,2.7-4.9,4.9-0.5c1.3,2.7,3.6,2.5,5.8,1c0.9-0.6,1.7-1.6,2.5-2.4
	C590.5,552.7,594.2,550.1,599.1,553.4z"/>
<path style="fill:#A17337;" d="M562.1,556.3c0-1,0-2,0-3c-0.6-0.5-0.7-1.2-0.5-1.9c1.4-2.6,3.6-3.8,6.5-4.1c0.7,0,1.3,0,2,0
	C567.5,550.4,565.8,554.3,562.1,556.3z"/>
<path style="fill:#956026;" d="M568.1,547.3c-1.8,1.7-3.6,3.3-5.9,4c-4.3-0.5-3.6-5.4-6.3-7.2c-1.3-0.5-2.4-1-3.2-2.2
	c-0.5-0.8,0-1.8-0.6-2.6c3.8,0.3,3.4-3.7,5.4-5.2c1.2-1-0.1-4.7,2.6-3.6c1.9,0.8,4.2,2.8,4,5.8c-0.1,2.3,0,4.6,0,6.9
	c-0.1,3.4,1.6,1.8,3,1.1C567.4,545.4,567.8,546.4,568.1,547.3z"/>
<path style="fill:#B19665;" d="M514.1,597.3c-0.7,0-1.3,0-2,0c-0.6-6.5-1.3-13-4.2-18.9c-1.1-2.3-3.7-3.2-5.3-5
	c-2.8-3.2-5-6.8-6.3-10.8c-0.5-1.6-0.6-3.6,0.8-5.2c-0.2,4.5,2.1,7.9,5,11c4.2,1.9,8.8,3.1,12.2,6.4c1.7,1.7,3.1,3.6,5.1,5.2
	c2.8,2.2,2.6,5.4,0.8,8.4C517.1,590.7,518.4,595.9,514.1,597.3z"/>
<path style="fill:#8B6B39;" d="M552.1,605.3c1.6,3.8,0,8.4,3.7,11.8c1.2,1.1-0.4,3.3-1.7,4.7c-1.1,1.2-3.1,1.4-3.5,3.3
	c0.6,1.2,1.3,0.5,2,0.2c3.9-2,5.2,0,4,3.3c-1.2,3.2,1,2.4,2.4,2.7c-1.4,6.3-1,12.9-3.6,19.1c-1.8,4.2,1.4,9,0.6,13.6
	c-0.4,2.1,0.5,4.9-2.9,5.3c-3.4-3.5-5.1-7.5-3.9-12.7c-2.4,0-3.7,2.1-3.5,3.3c0.7,3.5-1.2,6.5-1.2,9.7c0,5.7-2,9.6-8,10.5
	c-0.7-1.6,0.9-2.3,1.5-3.4c2.4-4.4,5.2-8.5,4.4-14.2c-0.6-4.1,1.4-8.2,4.6-11.1c4.4-3.8,2-6.9-1-9.6c-1.5-1.4-1.9-2.4-1.3-4.2
	c0.7-2.3,1.6-4.7-0.2-7.1c-0.6-0.8-0.2-2.1,0.8-2.6c4.1-2.2,2.6-5.6,2.1-9.1c-2.8,1.2-1.9,4-2.9,5.8c-0.6,1.1-0.5,3.1-2.1,2.9
	c-1.9-0.2-0.9-2.1-1.2-3.3c1.5-0.9,2-2,1.6-3.8c-0.9-3.6,0.8-6.8,1.4-10.2c-1.7-2.7-1.7-5.3,0.4-7.8c0.8-0.6,1.8-0.9,2.8-0.9
	c4,1.5,2.7,4.1,1.5,6.6C549.9,607.5,549.5,604.8,552.1,605.3z"/>
<path style="fill:#765627;" d="M553.2,669.3c2.2-4.2,3.1-8.2,0.1-12.8c-1.3-2-0.6-5.5,0.7-8.1c2-4.2,3.6-8.4,3.3-13.2
	c-0.1-1.3,1.2-2.6,1.8-3.9c1.2-0.6,0.9,0.5,1.1,1c-0.6,8.7-3.1,17.2-2.9,26c0,5.3-0.7,10.7,0.8,15.9c-0.6,0.8-0.2,2.5-1.9,2.4
	c-1.3-0.1-1.5-1-1.7-2.1C554,672.8,551.5,671.6,553.2,669.3L553.2,669.3z"/>
<path style="fill:#8B6B39;" d="M553.2,669.3c0.3,1.8,1.8,3,2.1,4.9c0.5,3.4,1.8,0.7,2.8,0.1c-0.3,3.6-0.6,7.2-0.9,10.8
	c-0.1,1.5-1,1.8-2.4,1.8c-1.6,0.1-2.6-0.4-2.5-2.1c0.1-2,0.2-4,0.3-5.9c0.2-1.7,2.5-3.5-1.6-4.5C549.1,673.9,552.1,671,553.2,669.3z
	"/>
<path style="fill:#8B6B39;" d="M544.5,642.1c-0.5,3.7,1.1,6.3-0.2,9c-0.3,0.7-0.5,1.7-1.6,1.6c-0.9-0.1-1.3-0.9-1.5-1.7
	C540.7,647.9,541.6,645.3,544.5,642.1z"/>
<path style="fill:#6F461B;" d="M607,696.2c-0.9,1.1-1.8,2.4-3.6,1.8c0.2-1.2,0.5-2.5,0.7-3.7c0.6-1.1,1.1-2.2,1.8-3.6
	C607.8,692.4,606.8,694.5,607,696.2z"/>
<path style="fill:#A88247;" d="M520.2,588.4c-0.1-1.6-1.3-3.1-0.6-4.8c0.3-0.8,0.4-2.2-0.3-2.2c-6.3-0.5-6.3-9.6-13.2-9.4
	c-1.3,0-2.6-2.3-3.9-3.5c0.3-2.1-1.6-3.5-1.8-5.4c-0.2-2.9,0.7-5.4,3.7-6.6c0.4,0.4,0.7,0.4,1.1-0.1c2.4-1.2,4.6-1.7,4.9,2.1
	c-1.3,0.3-2.5,0.8-3.8,1c-1.7,0.2-3.7,0.1-3.8,2.3c0,2.1,1.2,4,3.3,4.4c1.7,0.3,2.5,0.4,2.1,2.3c-0.2,0.9,0.5,1.9,1.3,1.8
	c3.8-0.6,7.8,2,11.2,0.2c4.6-2.4,9-5.5,9.9-11.5c0.5-3.1,0.6-7.1,5.9-6.4c0.8,0.1,2.1-1.9,3-3.1c1.1-1.4,1.2-3.5,3.4-4
	c1,1.4-0.5,2.1-0.8,3.1c-0.8,2.7-6.6,4.2-2.1,8.2c-2.1,2.2-1.3,5.5-3.3,7.9c-3.5,4.2-8,7-12.3,10.1c-1,0.7-2.9,1.4-1.8,2.9
	c1.1,1.6,2.2-0.4,3.3-0.8c6-2.1,9.4-6.9,13.4-12.7c-0.2,4.3,2.1,3.8,4.2,3.5c1.5,2.6-0.6,3.6-2.1,4.7c-2.5,1.8-4.4,3.9-5.3,7
	c-0.6,2.1-2,3.8-3.5,5.4c-2.4,2.5-5.1,4.7-5.4,8.6c-0.1,1.6-1.4,3.1-3.6,2.3C522,593.1,522,590.3,520.2,588.4z"/>
<path style="fill:#957B50;" d="M482.1,527.4c-1.5,3.1-2.6,5.9,2.5,6.5c0.9,0.1,1.6,1.6,2.4,2.3c3.3,2.8,5.3,7.2,10.4,7.8
	c2.7,0.3,3.5,2.7,3.3,4.9c-0.3,2.2,0.3,4.3,0.4,6.4c-1.3,1.4-2,2-3.5-0.3c-1.5-2.3-0.5-6.6-3-6.9c-3.2-0.4-4.7-2.6-7-3.8
	c-4-2.1-6.8-5.8-9.3-9.4C475.6,530.8,479.1,529,482.1,527.4z"/>
<path style="fill:#9C7239;" d="M523.1,595.3c0.8-0.8,2.5-2,2.3-2.3c-2.2-4.7,2.2-6.2,4.3-8.6c2-2.3,4.2-4.3,4.8-7.8
	c0.5-2.7,2.8-5.2,5.8-6.2c1.6-0.6,2.6-1.3,2.8-3c-3.2-5.6,1.6-9.4,3.1-14c1.2,0.5,2.8,0.5,3.4,2c0,3.4-1.6,6.2-2.8,9.3
	c0.3,1.6,2.6,0.5,3,2c1.6,5.6-2.6,9.7-3.8,14.5c-0.3,1.3-0.8,2.9-1.5,3.9c0.2-0.4-0.3,0.6-0.3,0.5c1.8-3.9,4.6-5.9,4,0.3
	c-0.5,5.7,1,12.2-3.1,17.4c-0.3,2.3-0.7,4.7-1,7c-2.8-0.1-5.6-0.4-8.3-1.7c-0.3-1.7,3.2-1.7,1.8-3.9c-1.6-2.5,0.1-4,1.8-5.3
	c0.8-0.6,1.9-1,1.7-2.2c-0.2-1.4-1.6-0.8-2.4-1c-4-1.1-4.8-3.2-2.2-6.3c2-2.5,2-2.5,2.2-6.6c-3.5,0.2-3.8,4.7-5.5,5.1
	c-4.5,0.8-3.2,3.5-3.5,6.2c-0.2,2-1.6,4.2-3.4,4.5C525.1,599.3,523,597.6,523.1,595.3z"/>
<path style="fill:#855B29;" d="M529.2,527.3c3.9,3.6,3.9,8.3,3.1,12.8c-1,5.7-2.8,11.2-4.3,16.8c-0.6,2.5-2.4,3.5-4.8,3.5
	c-0.2-0.2-0.3-0.4-0.5-0.7c-0.8-2.5,0-5,0.8-7.3c1.8-4.8,2.1-9.7,1.1-14.6c-1-4.7,1.9-7.4,4.4-10.4L529.2,527.3z"/>
<path style="fill:#855B29;" d="M510.1,558.4c-1-2.3-3-2-4.9-2.1c1.3-1.8,2.5-3.6,5-4c0,0,0.1,0.1,0.1,0.1c4.7-0.1,9.2,0.4,10.7,6.1
	c0.2,0.8,1.5,1.2,2.3,1.8c0,0,0.1,0.1,0.1,0.1c-0.3,3.7-2.3,5.7-6,5.9c-1.7,0.1-3.2,0.6-4.4,1.8c-0.7,0.7-1.6,1.4-2.6,0.5
	c-1-0.9-0.4-1.9,0.2-2.7C512.3,563.2,511.9,560.8,510.1,558.4z"/>
<path style="fill:#A88247;" d="M540.8,541.6c-0.8,2.8-2.8,5.2-5.1,7c-1.6,1.2-2.9-0.8-2.2-2.4c1-2.4,2.5-4.7,3.9-6.9
	c0.5-0.7,1.4-0.9,2.2-0.4C540.7,539.4,541,540.3,540.8,541.6z"/>
<path style="fill:#885F2E;" d="M549.1,555.4c-1.4-0.1-2.3-0.8-2.9-2c2-1.1,3-3.5,2.5-5c-1.2-4.1,1.3-6.4,3.4-9
	c0.3,0.7,0.7,1.4,1,2.1c2.2,3.9-1.9,7.2-1.2,10.9C551.7,554,550.9,555.2,549.1,555.4z"/>
<path style="fill:#855B29;" d="M508.8,562.3c-0.2,0.1-0.7,0.4-1.3,0.5c-1.1,0.2-1.9-0.4-2.3-1.3c-0.3-0.8,0.3-1.1,1-1.1
	C507.1,560.4,508.2,560.2,508.8,562.3z"/>
<path style="fill:#744415;" d="M523.1,560.3c-2.2,0.9-4.9,2.2-4.9-1.9c0-3.5-1.6-4.3-4.6-4.1c-1.5,0.1-3.1,0.1-3.5-1.9
	c1.2-1.8,1.1-4.8,4.6-4.8c1.3,0,1.8-2.4,1.2-3.3c-2.3-3.3,0.3-5.5,1.6-7.7c2.3-3.9,5.2-7.4,1.6-12.1c-0.5-0.7-1-2,0-2.7
	c1.3-0.8,3-1,4.2,0.1c1,1,2.4,2.7,2.1,3.7c-1.3,6.3,2.3,1.3,3.6,1.7c-2.6,4.5-3,9.1-2,14.2C528.2,548.2,525.1,554.2,523.1,560.3z"/>
<path style="fill:#937644;" d="M512.2,652.3c-1.1,0.1-1.8,0.7-2.3,1.7c-0.7,1.4-1.7,2.3-3,0.8c-1.2-1.3-0.2-2.5,1-3.3
	c3-2.1,5.6-4.6,7.2-8c0.9-2,1.6-4-0.3-7.2c-0.7,2.7-1.2,4.4-1.7,6.2c-0.4,1.6-1,2.9-3,2.2c-1.5-0.5-1.8-1.6-1.5-3.2
	c1-6.1,6.8-12.2,12.6-12.9c3.7-0.5,6,2.6,5,6.7c-2.9-0.7-3.6,1.6-4.6,3.3c-1.8,3.1-3.3,6.4-4.9,9.6
	C515.7,650.2,514.6,652,512.2,652.3z"/>
<path style="fill:#6F5634;" d="M573.2,578.3c2.3,0.1,4.7-0.2,6.3,2c3.7,5.2,9.3,4.9,14.3,3.6c3.8-0.9,8-1.8,11.3-4.6
	c2.2,0.2,4.2-0.3,6.3-0.7c1-0.2,1.9,0.3,2.2,1.4c0.2,0.7-0.1,1.5-0.8,1.6c-6.1,0.7-8,5.5-9.9,10.2c-0.1,0.3-0.5,0.4-0.8,0.6
	c-2.6,1-6.6-3.6-8,2c-2.4,0.1-4.2,4.2-7,1c0-0.7,0-1.3,0-2c0.4-3.4-2.9-2.4-4.2-3.7c-1.9-1.9-3-5.9-5.8-0.8
	c-0.4,0.7-2.4,0.3-2.4-0.7C574.6,584.8,571.8,581.8,573.2,578.3z"/>
<path style="fill:#85531C;" d="M549.1,555.4c0.7-1,1.3-2.1,2-3.1c-0.6-1-0.4-1.8,0.6-2.3c2.2-0.1,2.7,1.4,2.8,3.1
	c0.1,1.5,0.4,2.8,1.6,3.8c0.6,1.9,1.9,3.8,0,5.6c-1.5,0-2.7,0.2-2.8,2.1c1.9,2.8-0.1,5.5-0.3,8.2c-0.8,8.8-3.6,17.4-3.9,26.4
	c0,1.4-0.7,2.5-1.9,3.3c-0.7,0.3-1.3,0.7-2,1c0.6-6.5,0.8-13.1,2-19.6c-2.3,2.4-2.2,5.9-5.4,8.8c1.7-9.6,5.2-17.7,7.5-26.1
	c-0.2-0.6,0.1-1.8-1.3-1c-1.2,0.6-2.2,0.4-2.7-1C547,561.6,546.5,557.8,549.1,555.4z"/>
<path style="fill:#9C7239;" d="M547.1,602.3c0.8-12.8,3.1-25.4,6.1-37.9c1.4,0.2,2.1,1.3,1.8,2.5c-1.7,7.1-0.2,14.6-3.2,21.6
	c-1.1,2.5-2.7,6,1.4,8.3c1.3,0.8,1.5,3.2,0.1,4.5c-1.3,1.2-1.5,2.4-1.2,4c-1.4,2.7-2.7,5.3-4.4,8.5c-1-2.9-0.8-5.2,0.4-7.4
	C549,604.7,549.1,603.3,547.1,602.3z"/>
<path style="fill:#804A14;" d="M556.1,562.4c-0.3-2-0.6-4-0.9-6c-1.7-3.6,1.2-7.4-0.3-11.1c0.2-0.8,0.6-1.5,1.3-1.9
	c1-0.5,1-2.2,2.8-2.1c-1.1,4,1,7,3.2,10c0,0.7,0,1.3-0.1,2c-0.4,0.5-0.7,1.5-1.1,1.6c-2.9,0.3-3.5,0.8-2.6,4.2c0.8,3.1,1,5.8-1.8,8
	C555.6,565.6,556.3,563.9,556.1,562.4z"/>
<path style="fill:#9D875F;" d="M567.2,570.3c0.7-2.6,3.3-3.5,5-5.2c0.9-0.9,2.4-0.5,2.9,0.6c0.5,1.1-0.6,2-1.5,2
	c-2.1,0.1-2.9,2-4.6,2.7C568.4,570.3,567.8,570.3,567.2,570.3z"/>
<path style="fill:#706754;" d="M609.1,557.4c-3.6-2.4-5.6-5.1-2-9.1c2,0,3.1,2.4,5.3,2.2c0.4-2.3-3-2-2.7-4.4
	c2.1-0.7,4.2,4.1,6.4,0.3c1.8,3.2,5.3,6.3,2.6,10.3C616.2,560.3,612.4,557.3,609.1,557.4z"/>
<path style="fill:#885F2E;" d="M587.1,595.3c2.5,1.1,4.5-1.9,7-1c-0.5,1.6-3.1,2-2.5,4.4c0.4,1.7-0.6,3.6-2.4,3.5
	c-1.7-0.1-1.6-2.2-1.9-3.5C587,597.7,587.1,596.5,587.1,595.3z"/>
<path style="fill:#A17337;" d="M556.2,543.4c0,0.7-0.1,1.3-0.1,2c-0.3,2.4-0.7,4.8-4,4.9c-0.3,0.7-0.7,1.3-1,2
	c-1.8-4.1,1.9-7.1,2.1-10.8C554.2,542.1,555.2,542.8,556.2,543.4z"/>
<path style="fill:#9C7239;" d="M549.8,620c-1.1-2.7-0.9-4.5,1.7-6C552.5,616.5,551.5,618.1,549.8,620z"/>
<path style="fill:#885F2E;" d="M545.2,564.4c3.1,1.4,3.5-2.3,5.6-2.9c0.6,2.1-0.4,3.5-1.6,4.9c-1.8,0-2.8,1.6-4.2,2.3
	C543.5,566.9,544.6,565.7,545.2,564.4z"/>
<path style="fill:#885F2E;" d="M552.1,550.3c1.3-1.6,2.6-3.3,4-4.9c2.1,3.9,0.3,7.4-0.9,11c-1,0.4-0.7,2.3-2.5,2.3
	C551.9,555.9,554.5,552.8,552.1,550.3z"/>
</svg>
