<?xml version="1.0" encoding="utf-8"?>
<!-- Generator: Adobe Illustrator 26.0.3, SVG Export Plug-In . SVG Version: 6.00 Build 0)  -->
<svg version="1.1" id="Layer_1" xmlns="http://www.w3.org/2000/svg" xmlns:xlink="http://www.w3.org/1999/xlink" x="0px" y="0px"
	 viewBox="0 0 224 225" style="enable-background:new 0 0 224 225;" xml:space="preserve">
<style type="text/css">
	.st0{fill:#FEFEFE;}
	.st1{fill:#E20919;}
	.st2{fill:#E00B19;}
	.st3{fill:#DE0B1A;}
	.st4{fill:#E00A19;}
	.st5{fill:#D4101D;}
	.st6{fill:#D6101C;}
	.st7{fill:#CA1622;}
	.st8{fill:#AA0E18;}
	.st9{fill:#B10F0E;}
	.st10{fill:#FFFFFF;}
	.st11{fill:#AB1625;}
	.st12{fill:#A11A1F;}
	.st13{fill:#AE0607;}
	.st14{fill:#B00308;}
	.st15{fill:#9C121C;}
	.st16{fill:#AB1019;}
	.st17{fill:#97282D;}
	.st18{fill:#F5EBEA;}
	.st19{fill:#C90F17;}
	.st20{fill:#F6F1F1;}
</style>
<path class="st0" d="M-301.3,202.5c0-73.6,0-147.2-0.1-220.8c0-3.4,0.7-4.1,4.1-4.1c71.9,0.1,143.9,0.1,215.8,0
	c3.4,0,4.1,0.7,4.1,4.1c-0.1,72.3-0.1,144.5,0,216.8c0,3.4-0.7,4.1-4.1,4.1C-154.7,202.5-228,202.4-301.3,202.5z"/>
<path class="st1" d="M155.4,79.9c10.3,7.2,14,17.8,14.7,29.7c3.7,10.8,6.3,21.7,3.2,33.2c-1.2,4.3-0.9,8.8-1.2,13.2
	c-0.3,10.3-1.7,20.5-0.5,30.9c0.1,1.5-0.1,3-0.6,4.4c-0.3,1.4-0.8,3-2.7,3.2s-2.7-0.9-3.2-2.5c2.8-13,2.2-26.3,2.3-39.5
	c0-0.5-0.3-0.9-0.7-1.2c-3.2-2.7-10.8-2.9-14.9,0c-1.6,1.2-3.5,1.5-5,2.6c-5.5,3.5-4.4,9.4-5.4,14.5c-0.5,2.2,0.9,5.7-3.3,5.8
	c-1.3-2-0.2-4.2-0.7-6.3c-0.2-3.3-2.2-4.2-5.2-4.7c-6.5-1.2-12.9-2.6-19.2-4.4c-5.9-1.6-7.9-5.1-8.1-11.3c-0.1-3.7-0.5-7.5-5.5-8.7
	c-2.8-0.7-2.4-3.5-1.8-5.8c0.5-1.7,1.5-3.7-1.5-4.1c-1.5-2.6-4.3-4.1-5.5-7.1c-0.9-2.2-1.9-4-0.3-6.5c1-1.7,0.4-3.8-1.2-4.8
	c0,0,0,0,0,0c-2.6-1.8-4.4-4.6-7.6-5.5c-1.7-0.5-3.1-1.5-2.8-3.6c0.4-1.7,1.7-3,3.4-3.3c2-0.6,4,0,5.9,0.1c4.4,0.2,5.8-1.9,3.5-5.8
	c-1.1-2-0.4-3.4,1.3-4c2.4-0.8,4.6-1.9,7-2.4c4.6-1,6.1,0.1,6.9,4.7c0.1,0.8,0,1.8,1,2c1.3,0.3,1.8-0.8,1.8-1.8
	c-0.2-2.9,1.3-4.2,4-4.7c1.2-0.2,2.1-1.1,2.5-2.2c1-3.1,3.5-5.4,6.7-6.1c1-0.2,2.3-0.6,2.4-1.5c0.9-5.8,6.1-6.6,10-8.8
	c3.4-1.9,5.6-1.5,6.3,2.2c0.9,4.7,3.3,5.9,7.5,5.5C151.2,76.7,153.3,78.2,155.4,79.9z"/>
<path class="st2" d="M148.9,76c-2.2-0.1-4.3,1.5-6.6-0.6c-1.2-1.1-3.3-1-1.5-3.4c1.2-1.6-0.4-2.7-1.3-3.8c-1.2-1.3-2.5-1-3.4,0.1
	c-1.8,2.3-5.5,0.4-7.2,3.4c-0.7,1.2-2.1,2-2,3.7c0.1,2.6-1.4,3.3-3.7,3.7c-1.9,0.3-4,0.8-4.9,2.9c-1.3,3-2.2,6.3-6.8,6.1
	c-2-0.1-0.4,2.2-0.5,3.3c-0.2,2.1-0.9,3.6-3.3,3.4s-3.3-2-2.5-3.9c1.9-5.2-1.9-3.7-4.3-3.9c-2.8-0.2-4.8,2.2-7.7,2.1
	c-1,0-2.7,1.9-0.6,2.5c3,1,2.5,2.5,1.7,4.5c-0.9,2.5-3.4,3.9-6,3.5c-1.8-0.2-3.5-1-5.4-0.8s-3.4,1.1-3.5,2.9s1.7,1.6,2.8,2.1
	c4.5,2.1,8.2,5.1,9.8,10.1c0.4,1.3,1.3,2.1-1.1,2.7c-2,0.5-0.8,2.2,0,3.5c1.7,2.9,4.7,4.9,5,8.5c-5.4-1.6-8.9-7.9-7.6-14.2
	c0.6-2.7,0.8-4.2-2.6-3.6c-1.4,0.2-2.7-0.4-3.5-1.6c-4.7-8.3-14.1-11.6-19.6-19c-1.2-1.6-4.1-0.8-4.6-3.3c1.4-1.7,2.4-3.6,4.1-5
	c4.5,1.5,7.4,5.6,11.8,7.3c1.6,0.6,2.7,2.1,5.2,0.9c2.2-1.1,3.5,1.5,4,3.6c4,1.8,4.5-1,5-3.8l4.5-6.2c1.6-1,0.2-4.1,3-4.2
	c1.4,1.1,0.5,3.3,2.3,4.1c-1.4-1.5-1.4-3.5-2.3-5.1c0-1.3,1-2.3,2.3-2.3c0.2,0,0.4,0,0.6,0.1c1.9,2.7,1.9,2.7,3.6,0
	c0.8-1.3,2.7-1.2,3.5-2.5c0.3-0.3,0.8-0.5,1.2-0.6c2.4,0.2,3.6-1.2,4.2-3.3c0.5-1.7,0.8-3.4,3.4-2.4c-1.8-1.7-2.7-0.7-3.6,0.8
	s-1.5,4-4.3,2.4c-0.4-1.4,0.1-2.8-0.3-4.2c0-0.7,0.2-1.3,0.6-1.8c0.3-0.4,0.7-0.8,0.8-1.3c-0.4,0.5-1.1,0.7-1.7,0.7
	c-0.9-0.4-1.5-1.2-1.5-2.2c0.7-2.4,1.1-5,3.6-6.3c2.8,4.1,7.5,6.6,9.8,11.1c0.2,0.5,0.4,0.9,0.8,1.2c3,2.5,14.1,0.2,16.4-2.9
	c1.5-2,1.8-3.2-0.4-4.8c-2.5-1.6-4-4.5-3.9-7.5c0-2.5-0.1-6-3.8-7.1c-0.7-0.5-1.1-1.2-1.1-2.1c1.2-6.9-3.9-10.9-7.2-15.7
	c-3.5-5.2-3.3-8.9,0.5-13.6c3.5-4.3,8.1-4.3,11.9-0.1c3.1,3.7,4.8,8.5,4.5,13.4c-0.4,10.1,2.3,19.5,4.8,28.9
	c1.5,5.6,0.8,11.6,3.6,16.9c0.7,1.4,2,0.6,3.1,0.8S149.2,74.5,148.9,76z"/>
<path class="st3" d="M69,128.4c4.6-1.4,6.6,1.5,9.7,4.4c7.1,6.7,7,14.8,6.7,23.2c-0.2,2.8-0.1,5.6,0.4,8.4c0.4,2,1.3,4.3-1,5.9
	c-0.9,0.8-2.2,0.9-3.2,0.2c-2.1-1.5-1.5-3.9-1.4-6c0.1-5,0.2-10,0.3-14.9c0.1-3.4-0.5-6-5-5.2c-1.3,0.1-2.6-0.2-3.8-0.7
	c-3.9-1.3-7.5-2.8-11.9-2.2c-3.8,0.5-6.6-2.2-8.2-5.4c-2.2-4.2,0-6.8,6.6-8.2C61.6,126.7,65.3,127.9,69,128.4z"/>
<path class="st1" d="M108.1,55.8c-0.9,2.1-1.2,4.6-3.1,6.2c-2.5,0.8-3.3-0.8-3.8-2.7c-1.4-5.1-3.8-9.8-6.9-14
	c-1.2-1.6-2-3.2-4.3-3.5c-2.4-0.4-4.3-2.1-4.8-4.5c-0.8-3-2.8-4.2-5.4-5.2c-4.5-3.8-4.8-10-7.6-14.7c-1-1.7,0.4-3.9,2.2-5.1
	c2.3-1.6,5.3-1.6,7.5,0.1c4.3,2.9,7.6,7.2,9.3,12.1c1.1,2.9,3.2,5.3,4.5,7.9C99.5,40.3,105,47.5,108.1,55.8z"/>
<path class="st2" d="M56.2,84.1c-4.9,1.3-8.9,0.4-12.4-3.5c-3.9-4.3-10.1-5.4-14.2-9.5c-2-2.1-4.6-3.7-4.2-7.3
	c0.9-7.6,6-10.4,11.9-5.6c4.7,3.9,11.1,5.3,14.8,10.5c0.8,4.8,1.9,9.4,5.4,13.1C57.6,82.7,57.1,83.7,56.2,84.1z"/>
<path class="st4" d="M61.1,59c-4.1-3.3-8.2-6.6-12.2-10c-3.3-2.8-4.9-6.7-6.1-10.6c-1-3.4,2.5-5.4,3.8-8.1c1-2.1,4-0.7,5.7,0.6
	c4.4,3.3,9.6,5.8,10.7,12.2c0.8,4.4,5.6,6.5,7.2,10.5c1.7,3.2,1.3,6.6,1,10c-0.2,2.1-1.3,2.4-2.3,1C66.9,61.8,63.4,61.3,61.1,59z"/>
<path class="st5" d="M79.7,32.2c2.5,0,4.8,1.5,5.6,3.9c1.2,2.8,2.8,6.2,7.2,4.5c0.8-0.3,0.9,0.3,1.2,1c2.5,6.5,7.9,11.6,8.9,18.9
	c0.1,0.6,1.6,1.1,2.4,1.6l1,2c0.6,0.5,1,1.2,1,2v5c0.7,1.4-0.2,2.1-1,3l0,0c-2.2,1.3-4.2,3-7,3c-1.3-0.1-2.6,0.7-3,2
	c0.3,0.2,0.4,0.4,0.3,0.7S96.1,80,96,80c-2.1,0.4-1.4,3.3-3.3,3.9c0.7-3.8,2-7.2-4.8-5.3c-4,1.1-7.1-2.9-8.8-6.7
	c-0.6-1.5-0.3-3.1-2.6-3.3c-1.3-0.1-1.8-1.4-1.6-2.7c0.3-1.7,1.8-1,2.8-1.1c3-0.3,5.4,1.2,7.5,2.8c3.7,3,7.4,5.6,12,7
	c3.7,1.1,5.6-1.7,7.7-3.3s1-4-1-5.9c-2.2-2.1-2.7-5.3-4.2-7.6c-3.6-5.5-3.2-14.2-12.1-15.6c-1.4-0.3-2.4-1.4-2.6-2.7
	C84.4,36.1,82,34.2,79.7,32.2z"/>
<path class="st6" d="M138,173.9c2.9-0.8,2.7-3.4,2.9-5.6c0.2-2.8,0.7-5.5,0.9-8.3c0.2-3.6,1.9-5.3,5-6.2c-5.9,6.6-4.5,14.9-5.1,22.6
	c-0.7,8.9-0.4,17.9-1.1,26.8c-0.3,3.9,1.2,7.1,2,10.6c-1.7,3.9-3.1,4.3-7.2,2c-1.5-2.1-1-4.1,0.2-6.1c1.6-4.9,0.7-10,0.5-15
	c0-3-0.7-6.1,0.7-9c0.9-0.5,0.3-1.8,1.2-2.2c0.6-0.1,0.8,0.4,1.2,0.6c-1.1-2.7,0-5.8-1.7-8.4C137.4,175.1,137.6,174.4,138,173.9z"/>
<path class="st7" d="M61.1,59c3.8,0.5,6.4,2.9,8.8,5.6c1.4-3.7,0.1-7.3,0.2-11c1.5,1.6,2.8,3.2,2.3,5.7c-1.1,5,0.8,9.8,0.8,14.7
	c-0.1,1.6,0,3.2,0.2,4.7c0.3,2.3-1,3.6-3,3.7c-2.6,0-2.4-2.1-2.3-4c0.1-3.5,0-6.9,0.1-10.4c0.1-2.5-0.5-4.5-3-5.6
	C63.4,61.8,62,60.6,61.1,59z"/>
<path class="st8" d="M172.1,156c-1.4-4.7-0.3-9.3,0.8-13.8c1.5-5.6,1.6-11.5,0.3-17.1c-1.2-5.1-1.1-10.5-3.1-15.4
	c1,1,2.5,1.5,2.7,3.3c0.8,10.6,5.1,21,0.6,31.9C171.8,148.2,173.5,152.3,172.1,156z"/>
<path class="st9" d="M166.8,151.3c0.8-0.7,1.1-0.3,1.2,0.5c0.4,12,0,24-1.2,36c-0.2,1.4-1,2.7-1.6,4.1c0.7-9.4,1.9-18.7,1.6-28.2
	C166.7,159.6,166.8,155.5,166.8,151.3z"/>
<path class="st10" d="M56.2,84.1L57,82c-0.2-1.5,0.4-2.2,1.9-2c1.9-0.5,2.2,1.5,3.3,2.1c-0.6,2.3-0.9,4.9-4.1,5
	C57.4,86.1,56.8,85.1,56.2,84.1z"/>
<path class="st11" d="M58.9,80L57,82c-3.6-3.4-5.4-8.4-4.8-13.3c1,0.5,1.7,1.6,1.5,2.8C53.1,75.9,55.7,78.1,58.9,80z"/>
<path class="st12" d="M148.9,76c-1-2-4,0.1-4.9-2.3c5.1-0.4,8.9,1.6,11.3,6.1C152.9,79.1,150.5,78.3,148.9,76z"/>
<path class="st13" d="M138,184c0.1,0.8-0.4,1.6-1.2,2c-0.5-6-0.3-12,0.5-18c1,1.9,0.4,4,0.6,6v2C139.4,178.4,139.4,181.5,138,184z"
	/>
<path class="st10" d="M88.2,90.1c-0.1,0.5-0.1,1-0.2,1.4c-0.3,2,4.7,1.2,2.4,3.3c-2.1,1.7-5.1,1.5-6.8-0.6c-0.1-0.1-0.2-0.3-0.3-0.4
	c0.3-0.6,0.6-1.3,0.8-1.9c1.1-0.2,2.2-0.9,2.8-1.9L88.2,90.1z"/>
<path class="st14" d="M136.1,194.9c1,5,2,10-0.5,15L136.1,194.9z"/>
<path class="st15" d="M69,128.4l-11.1-0.4C61.7,125.8,65.4,126.6,69,128.4z"/>
<path class="st16" d="M135.4,216c3,1.3,5.5,1,7.2-2c0.8,2.1,0.1,3.5-2,4S136.3,218.8,135.4,216z"/>
<path class="st17" d="M86.9,90.1c0.4,1.3,0.6,2.7-0.6,3.5c-1.7,1.1-1.2-1.4-2.2-1.6C83.8,89.6,85.3,89.7,86.9,90.1z"/>
<path class="st18" d="M115.9,128.3c5.5,3.5,5.5,4.4-0.4,8.5c-0.2,0.2-0.4,0.5-0.6,0.7c-1,1.3-2.2,2.8-4,2.2s-2.5-2.5-2.8-4.4
	c-0.1-0.8-0.1-1.7-0.1-2.5C107.9,126.7,110.1,125.5,115.9,128.3z"/>
<path class="st19" d="M115.9,128.3h-0.5c-6.6-0.3-7.7,1-6.2,7.3c0.9,3.7,2.6,4.7,5.7,2c-0.1,3.4-3.5,3-5.1,4.7
	c0.2-2.9-4.7-3.3-3.1-6.9c0.4-1.4,0.5-2.9,0.3-4.4c-0.1-2.2,0.2-4.2,2.7-4.6S114.7,125,115.9,128.3z"/>
<path class="st20" d="M102.1,85.2c2.2-3.5,5-5.8,7.4-8.3c1.4-1.5,2.9-3.1,5-1.6c1.5,1,4.6,1.8,3.6,3.9c-0.9,1.9-1.8,4.8-4.7,5.1
	C109.8,84.8,106.1,84.9,102.1,85.2z"/>
<path class="st1" d="M106,74l1-3c2.6-0.3,2.6-2.8,3.6-4.3c1.3-2,2.9-2.2,4.5-0.7c1.1,0.9,1.2,2.6,0.3,3.6c0,0,0,0,0,0
	c-1.8,2.1-1.2-2.1-2.7-1.1C112.5,73.3,109.8,75.6,106,74z"/>
<path class="st1" d="M75.1,95.3c-3.3,1-3.3,1-8.8-5.8C71.4,88.6,71.6,94.4,75.1,95.3z"/>
<path class="st1" d="M99,77.1c2-1.6,4.4-2.6,7-3c0.5,1.3,1.2,2.7-1.3,2.3c-1.2-0.2-2.4,0.2-2,1.3c0.5,1.3,2.3,2.5-0.6,2.8
	C99.7,80.6,98.3,79.8,99,77.1z"/>
<path class="st1" d="M96,80v-1c1.2,1.7,2.1,3.6,4.4,4.3c-1.3,1.3-2.3,3.7-3.8,2.7C95.1,84.8,96.3,82.1,96,80z"/>
<path class="st1" d="M107,66c-0.7-0.4-1.1-1.2-1-2c1.4-0.9,1.5-2.9,3.7-3.4C109.4,62.7,108.5,64.6,107,66z"/>
<path class="st1" d="M138,184c0-2.7,0-5.3,0-8c4.1,2.6,0.8,6.6,2.1,9.9C138.5,185.9,139.1,184.1,138,184z"/>
</svg>
